<svg xmlns="http://www.w3.org/2000/svg" width="400" height="400" fill="none" viewBox="0 0 400 400"><path fill="#091440" d="M188 287H0V312H188V287Z"/><path fill="#C4CBD2" d="M0 374.68V400H188V374.68V312H0V374.68Z"/><path fill="#091440" d="M400 287H213V312H400V287Z"/><path fill="#C4CBD2" d="M400 374.68V312H213V374.68V400H400V374.68Z"/><path fill="#091440" d="M188 143H0V168H188V143Z"/><path fill="#C4CBD2" d="M188 230.93V168H0V230.93V256H188V230.93Z"/><path fill="#091440" d="M400 143H213V168H400V143Z"/><path fill="#C4CBD2" d="M400 230.93V168H213V230.93V256H400V230.93Z"/><path fill="#C4CBD2" d="M400 25V0H250.24H0V25H250.24H400Z"/><path fill="#091440" d="M400 87.1801V25H250.24H0V87.1801V112H250.24H400V87.1801Z"/></svg>