<svg xmlns="http://www.w3.org/2000/svg" width="400" height="400" fill="none" viewBox="0 0 400 400"><path fill="#091440" d="M400 375H0V400H400V375Z"/><path fill="#091440" d="M351 325H50V350H351V325Z"/><path fill="#091440" d="M87 150H50V200H87V150Z"/><path fill="#091440" d="M350 150H312V200H350V150Z"/><path fill="#091440" d="M284 150H247V200H284V150Z"/><path fill="#091440" d="M218 150H181V200H218V150Z"/><path fill="#091440" d="M153 150H115V200H153V150Z"/><path fill="#C4CBD2" d="M87 200H50V300H87V200Z"/><path fill="#C4CBD2" d="M350 200H312V300H350V200Z"/><path fill="#C4CBD2" d="M284 200H247V300H284V200Z"/><path fill="#C4CBD2" d="M218 200H181V300H218V200Z"/><path fill="#C4CBD2" d="M153 200H115V300H153V200Z"/><path fill="#091440" d="M0 100V125H400V100L200 0L0 100Z"/></svg>