<svg xmlns="http://www.w3.org/2000/svg" xmlns:osb="http://www.openswatchbook.org/uri/2009/osb" xmlns:svg="http://www.w3.org/2000/svg" id="svg8" width="157.778" height="88.997" version="1.1" viewBox="0 0 41.745 23.547"><defs id="defs2"><marker style="overflow:visible" id="marker3079" orient="auto" refX="0" refY="0"><path id="path3077" d="M 8.7185878,4.0337352 -2.2072895,0.01601326 8.7185884,-4.0017078 c -1.7454984,2.3720609 -1.7354408,5.6174519 -6e-7,8.035443 z" transform="matrix(-0.3,0,0,-0.3,0.69,0)" style="fill:#170000;fill-opacity:1;fill-rule:evenodd;stroke:#170000;stroke-width:.625;stroke-linejoin:round;stroke-opacity:1"/></marker><marker style="overflow:visible" id="marker3021" orient="auto" refX="0" refY="0"><path id="path3019" d="M 8.7185878,4.0337352 -2.2072895,0.01601326 8.7185884,-4.0017078 c -1.7454984,2.3720609 -1.7354408,5.6174519 -6e-7,8.035443 z" transform="matrix(-0.3,0,0,-0.3,0.69,0)" style="fill:#170000;fill-opacity:1;fill-rule:evenodd;stroke:#170000;stroke-width:.625;stroke-linejoin:round;stroke-opacity:1"/></marker><marker id="Arrow2Sstart" orient="auto" refX="0" refY="0" style="overflow:visible"><path id="path2547" style="fill:#170000;fill-opacity:1;fill-rule:evenodd;stroke:#170000;stroke-width:.625;stroke-linejoin:round;stroke-opacity:1" d="M 8.7185878,4.0337352 -2.2072895,0.01601326 8.7185884,-4.0017078 c -1.7454984,2.3720609 -1.7354408,5.6174519 -6e-7,8.035443 z" transform="matrix(0.3,0,0,0.3,-0.69,0)"/></marker><marker id="marker2833" orient="auto" refX="0" refY="0" style="overflow:visible"><path id="path2831" d="M 0,0 5,-5 -12.5,0 5,5 Z" style="fill:#000;fill-opacity:1;fill-rule:evenodd;stroke:#000;stroke-width:1.00000003pt;stroke-opacity:1" transform="matrix(0.8,0,0,0.8,10,0)"/></marker><marker id="Arrow1Lend" orient="auto" refX="0" refY="0" style="overflow:visible"><path id="path2520" d="M 0,0 5,-5 -12.5,0 5,5 Z" style="fill:#000;fill-opacity:1;fill-rule:evenodd;stroke:#000;stroke-width:1.00000003pt;stroke-opacity:1" transform="matrix(-0.8,0,0,-0.8,-10,0)"/></marker><marker id="Arrow1Lstart" orient="auto" refX="0" refY="0" style="overflow:visible"><path id="path2517" d="M 0,0 5,-5 -12.5,0 5,5 Z" style="fill:#000;fill-opacity:1;fill-rule:evenodd;stroke:#000;stroke-width:1.00000003pt;stroke-opacity:1" transform="matrix(0.8,0,0,0.8,10,0)"/></marker><linearGradient id="linearGradient2316" osb:paint="solid"><stop style="stop-color:#000;stop-opacity:1" id="stop2314" offset="0"/></linearGradient><linearGradient id="linearGradient843" osb:paint="solid"><stop style="stop-color:#000;stop-opacity:1" id="stop841" offset="0"/></linearGradient><linearGradient id="linearGradient825" osb:paint="gradient"><stop style="stop-color:#000;stop-opacity:1" id="stop821" offset="0"/><stop style="stop-color:#bd3b3b;stop-opacity:0" id="stop823" offset="1"/></linearGradient><marker id="Arrow2Send-4" orient="auto" refX="0" refY="0" style="overflow:visible"><path id="path2550-8" style="fill:#000;fill-opacity:1;fill-rule:evenodd;stroke:#000;stroke-width:.625;stroke-linejoin:round;stroke-opacity:1" d="M 8.7185878,4.0337352 -2.2072895,0.01601326 8.7185884,-4.0017078 c -1.7454984,2.3720609 -1.7354408,5.6174519 -6e-7,8.035443 z" transform="matrix(-0.3,0,0,-0.3,0.69,0)"/></marker><marker id="Arrow2Sstart-1" orient="auto" refX="0" refY="0" style="overflow:visible"><path id="path2547-3" style="fill:#170000;fill-opacity:1;fill-rule:evenodd;stroke:#170000;stroke-width:.625;stroke-linejoin:round;stroke-opacity:1" d="M 8.7185878,4.0337352 -2.2072895,0.01601326 8.7185884,-4.0017078 c -1.7454984,2.3720609 -1.7354408,5.6174519 -6e-7,8.035443 z" transform="matrix(0.3,0,0,0.3,-0.69,0)"/></marker><marker id="Arrow2Sstart-1-5" orient="auto" refX="0" refY="0" style="overflow:visible"><path id="path2547-3-5" style="fill:#170000;fill-opacity:1;fill-rule:evenodd;stroke:#170000;stroke-width:.625;stroke-linejoin:round;stroke-opacity:1" d="M 8.7185878,4.0337352 -2.2072895,0.01601326 8.7185884,-4.0017078 c -1.7454984,2.3720609 -1.7354408,5.6174519 -6e-7,8.035443 z" transform="matrix(0.3,0,0,0.3,-0.69,0)"/></marker><marker id="Arrow2Send-4-1" orient="auto" refX="0" refY="0" style="overflow:visible"><path id="path2550-8-4" style="fill:#000;fill-opacity:1;fill-rule:evenodd;stroke:#000;stroke-width:.625;stroke-linejoin:round;stroke-opacity:1" d="M 8.7185878,4.0337352 -2.2072895,0.01601326 8.7185884,-4.0017078 c -1.7454984,2.3720609 -1.7354408,5.6174519 -6e-7,8.035443 z" transform="matrix(-0.3,0,0,-0.3,0.69,0)"/></marker></defs><metadata id="metadata5"/><g id="layer1" transform="translate(-75.209834,-63.570814)"><rect style="opacity:.32300002;fill:#000;fill-opacity:1;fill-rule:nonzero;stroke:#000;stroke-width:.11235411;stroke-linejoin:round;stroke-miterlimit:4;stroke-dasharray:none;stroke-dashoffset:0;stroke-opacity:1;paint-order:normal" id="rect2466" width="10.725" height="7.102" x="85.162" y="63.627"/><text xml:space="preserve" style="font-style:normal;font-weight:400;font-size:4.93888903px;line-height:1.25;font-family:sans-serif;letter-spacing:0;word-spacing:0;fill:#000;fill-opacity:1;stroke:none;stroke-width:.26458332" id="text2487" x="88.998" y="68.355"><tspan id="tspan2485" x="88.998" y="68.355" style="font-size:4.93888903px;line-height:2.25;stroke-width:.26458332">x</tspan></text><text xml:space="preserve" style="font-style:normal;font-weight:400;font-size:10.58333302px;line-height:1.25;font-family:sans-serif;letter-spacing:0;word-spacing:0;fill:#000;fill-opacity:1;stroke:none;stroke-width:.26458332" id="text2487-6" x="96.758" y="84.588"><tspan id="tspan2485-3" x="96.758" y="84.588" style="font-size:4.23333311px;line-height:2.25;stroke-width:.26458332">h(x)</tspan></text><path style="fill:none;stroke:#000;stroke-width:.26458332px;stroke-linecap:butt;stroke-linejoin:miter;stroke-opacity:1" id="path3009" d="M 95.970517,78.754183 Z"/><text xml:space="preserve" style="font-style:normal;font-weight:400;font-size:10.58333302px;line-height:1.25;font-family:sans-serif;letter-spacing:0;word-spacing:0;fill:#000;fill-opacity:1;stroke:none;stroke-width:.26458332" id="text2487-8" x="74.817" y="68.587"><tspan id="tspan2485-2" x="74.817" y="68.587" style="font-weight:700;font-size:4.23333311px;line-height:2.25;stroke-width:.26458332">Find</tspan></text><flowRoot id="flowRoot3421" transform="scale(0.26458333)" xml:space="preserve" style="font-style:normal;font-weight:400;font-size:40px;line-height:1.25;font-family:sans-serif;letter-spacing:0;word-spacing:0;fill:#000;fill-opacity:1;stroke:none"><flowRegion id="flowRegion3423"><rect id="rect3425" width="191.929" height="89.146" x="250.897" y="235.858"/></flowRegion><flowPara id="flowPara3427"/></flowRoot><rect style="opacity:1;fill:none;fill-opacity:1;fill-rule:nonzero;stroke:#000;stroke-width:.11440764;stroke-linejoin:round;stroke-miterlimit:4;stroke-dasharray:none;stroke-dashoffset:0;stroke-opacity:1;paint-order:normal" id="rect2466-1" width="11.124" height="7.1" x="95.488" y="79.961"/><rect style="opacity:.32300002;fill:#000;fill-opacity:1;fill-rule:nonzero;stroke:#000;stroke-width:.11235411;stroke-linejoin:round;stroke-miterlimit:4;stroke-dasharray:none;stroke-dashoffset:0;stroke-opacity:1;paint-order:normal" id="rect2466-5" width="10.725" height="7.102" x="106.174" y="63.707"/><text xml:space="preserve" style="font-style:normal;font-weight:400;font-size:4.93888903px;line-height:1.25;font-family:sans-serif;letter-spacing:0;word-spacing:0;fill:#000;fill-opacity:1;stroke:none;stroke-width:.26458332" id="text2487-65" x="110.244" y="68.569"><tspan id="tspan2485-6" x="110.244" y="68.569" style="font-size:4.93888903px;line-height:2.25;stroke-width:.26458332">x&apos;</tspan></text><path style="fill:none;stroke:#000;stroke-width:.92526269;stroke-linecap:butt;stroke-linejoin:miter;stroke-miterlimit:4;stroke-dasharray:none;stroke-opacity:1;marker-end:url(#Arrow2Send-4)" id="path2507-1" d="m 111.29182,71.783125 -4.17609,6.636637"/><text xml:space="preserve" style="font-style:normal;font-weight:400;font-size:10.58333302px;line-height:1.25;font-family:sans-serif;letter-spacing:0;word-spacing:0;fill:#000;fill-opacity:1;stroke:none;stroke-width:.26458332" id="text2487-8-0" x="97.063" y="68.393"><tspan id="tspan2485-2-8" x="97.063" y="68.393" style="font-weight:700;font-size:4.23333311px;line-height:2.25;stroke-width:.26458332">and</tspan></text><path style="fill:none;stroke:#000;stroke-width:.92526269;stroke-linecap:butt;stroke-linejoin:miter;stroke-miterlimit:4;stroke-dasharray:none;stroke-opacity:1;marker-end:url(#Arrow2Send-4-1)" id="path2507-1-7" d="m 90.053644,71.669468 4.17609,6.636637"/><text xml:space="preserve" style="font-style:normal;font-weight:400;font-size:10.58333302px;line-height:1.25;font-family:sans-serif;letter-spacing:0;word-spacing:0;fill:#000;fill-opacity:1;stroke:none;stroke-width:.26458332" id="text2487-8-0-8" x="89.852" y="84.468"><tspan id="tspan2485-2-8-2" x="89.852" y="84.468" style="font-weight:700;font-size:4.23333311px;line-height:2.25;stroke-width:.26458332">so</tspan></text></g></svg>