<svg xmlns="http://www.w3.org/2000/svg" xmlns:svg="http://www.w3.org/2000/svg" id="svg22" version="1.1" viewBox="0 0 570 523"><metadata id="metadata26"/><defs id="defs14"><style id="style2">.a{fill:url(#a)}.b{fill:url(#b)}</style><linearGradient id="a" x1="279.57" x2="423.38" y1="296.18" y2="213.16" gradientTransform="matrix(2.0363066,0,0,2.1882075,-286.62646,-303.90767)" gradientUnits="userSpaceOnUse"><stop id="stop4" offset="0" stop-color="#36bdba"/><stop id="stop6" offset=".93" stop-color="#39d8aa"/></linearGradient><linearGradient id="b" x1="152.23" x2="270.22" y1="330.17" y2="212.18" gradientTransform="matrix(2.0363066,0,0,2.1882075,-286.62646,-303.90767)" gradientUnits="userSpaceOnUse"><stop id="stop9" offset=".2" stop-color="#2576f4"/><stop id="stop11" offset="1" stop-color="#3298da"/></linearGradient></defs><title id="title16">transparent background - primary - negative - gardient</title><path id="path18" d="M 456.62544,396.31877 572.69491,521.04661 H 458.66176 L 267.24893,315.35508 h 118.43158 a 95.706407,102.84576 0 0 0 0,-205.69152 H 347.07215 L 251.36574,6.8177967 H 381.28211 A 191.4128,205.69154 0 0 1 572.69491,212.50933 c 0,83.41448 -34.20995,148.79811 -116.06947,183.80944 z" class="a" style="fill:url(#a);stroke-width:2.1108911"/><path id="path20" d="M 122.67117,131.54563 6.6016944,6.8177967 H 120.73669 L 312.14949,212.50933 H 193.7179 a 95.706407,102.84576 0 1 0 0,205.69152 h 38.50656 l 95.70641,102.84576 H 198.0145 A 191.4128,205.69154 0 0 1 6.6016944,315.35508 c 0,-83.41447 34.2099506,-148.79812 116.0694756,-183.80945 z" class="b" style="fill:url(#b);stroke-width:2.1108911"/></svg>