<svg xmlns="http://www.w3.org/2000/svg" xmlns:svg="http://www.w3.org/2000/svg" id="svg1357" width="568.161" height="155.188" version="1.1"><metadata id="metadata1363"/><defs id="defs1361"><marker style="overflow:visible" id="Arrow2Send-4-9-2" orient="auto" refX="0" refY="0"><path id="path2550-8-5-0" d="M 8.7185878,4.0337352 -2.2072895,0.01601326 8.7185884,-4.0017078 c -1.7454984,2.3720609 -1.7354408,5.6174519 -6e-7,8.035443 z" transform="matrix(-0.3,0,0,-0.3,0.69,0)" style="fill:#000;fill-opacity:1;fill-rule:evenodd;stroke:#000;stroke-width:.625;stroke-linejoin:round;stroke-opacity:1"/></marker><marker style="overflow:visible" id="Arrow2Send-4-9-4-3-8-4-3-4" orient="auto" refX="0" refY="0"><path id="path2550-8-5-7-4-5-7-4-3" d="M 8.7185878,4.0337352 -2.2072895,0.01601326 8.7185884,-4.0017078 c -1.7454984,2.3720609 -1.7354408,5.6174519 -6e-7,8.035443 z" transform="matrix(-0.3,0,0,-0.3,0.69,0)" style="fill:#000;fill-opacity:1;fill-rule:evenodd;stroke:#000;stroke-width:.625;stroke-linejoin:round;stroke-opacity:1"/></marker><marker style="overflow:visible" id="Arrow2Send-4-9-2-7-5" orient="auto" refX="0" refY="0"><path id="path2550-8-5-2-2-0" d="M 8.7185878,4.0337352 -2.2072895,0.01601326 8.7185884,-4.0017078 c -1.7454984,2.3720609 -1.7354408,5.6174519 -6e-7,8.035443 z" transform="matrix(-0.3,0,0,-0.3,0.69,0)" style="fill:#000;fill-opacity:1;fill-rule:evenodd;stroke:#000;stroke-width:.625;stroke-linejoin:round;stroke-opacity:1"/></marker><marker style="overflow:visible" id="Arrow2Send-4-9-4-3-8-4-3-7-4" orient="auto" refX="0" refY="0"><path id="path2550-8-5-7-4-5-7-4-8-2" d="M 8.7185878,4.0337352 -2.2072895,0.01601326 8.7185884,-4.0017078 c -1.7454984,2.3720609 -1.7354408,5.6174519 -6e-7,8.035443 z" transform="matrix(-0.3,0,0,-0.3,0.69,0)" style="fill:#000;fill-opacity:1;fill-rule:evenodd;stroke:#000;stroke-width:.625;stroke-linejoin:round;stroke-opacity:1"/></marker><marker style="overflow:visible" id="Arrow2Send-4-9-1-2" orient="auto" refX="0" refY="0"><path id="path2550-8-5-5-4" d="M 8.7185878,4.0337352 -2.2072895,0.01601326 8.7185884,-4.0017078 c -1.7454984,2.3720609 -1.7354408,5.6174519 -6e-7,8.035443 z" transform="matrix(-0.3,0,0,-0.3,0.69,0)" style="fill:#000;fill-opacity:1;fill-rule:evenodd;stroke:#000;stroke-width:.625;stroke-linejoin:round;stroke-opacity:1"/></marker><marker style="overflow:visible" id="Arrow2Send-4-9-4-3-8-4-3-7-4-3" orient="auto" refX="0" refY="0"><path id="path2550-8-5-7-4-5-7-4-8-2-4" d="M 8.7185878,4.0337352 -2.2072895,0.01601326 8.7185884,-4.0017078 c -1.7454984,2.3720609 -1.7354408,5.6174519 -6e-7,8.035443 z" transform="matrix(-0.3,0,0,-0.3,0.69,0)" style="fill:#000;fill-opacity:1;fill-rule:evenodd;stroke:#000;stroke-width:.625;stroke-linejoin:round;stroke-opacity:1"/></marker><marker style="overflow:visible" id="Arrow2Send-4-9-4-3-8-4-3-7-4-3-0" orient="auto" refX="0" refY="0"><path id="path2550-8-5-7-4-5-7-4-8-2-4-6" d="M 8.7185878,4.0337352 -2.2072895,0.01601326 8.7185884,-4.0017078 c -1.7454984,2.3720609 -1.7354408,5.6174519 -6e-7,8.035443 z" transform="matrix(-0.3,0,0,-0.3,0.69,0)" style="fill:#000;fill-opacity:1;fill-rule:evenodd;stroke:#000;stroke-width:.625;stroke-linejoin:round;stroke-opacity:1"/></marker><marker style="overflow:visible" id="Arrow2Send-4-9-2-7-5-4" orient="auto" refX="0" refY="0"><path id="path2550-8-5-2-2-0-5" d="M 8.7185878,4.0337352 -2.2072895,0.01601326 8.7185884,-4.0017078 c -1.7454984,2.3720609 -1.7354408,5.6174519 -6e-7,8.035443 z" transform="matrix(-0.3,0,0,-0.3,0.69,0)" style="fill:#000;fill-opacity:1;fill-rule:evenodd;stroke:#000;stroke-width:.625;stroke-linejoin:round;stroke-opacity:1"/></marker><marker style="overflow:visible" id="Arrow2Send-4-9-4-3-8-4-3-7-4-1" orient="auto" refX="0" refY="0"><path id="path2550-8-5-7-4-5-7-4-8-2-0" d="M 8.7185878,4.0337352 -2.2072895,0.01601326 8.7185884,-4.0017078 c -1.7454984,2.3720609 -1.7354408,5.6174519 -6e-7,8.035443 z" transform="matrix(-0.3,0,0,-0.3,0.69,0)" style="fill:#000;fill-opacity:1;fill-rule:evenodd;stroke:#000;stroke-width:.625;stroke-linejoin:round;stroke-opacity:1"/></marker><marker style="overflow:visible" id="Arrow2Send-4-9-1-2-7" orient="auto" refX="0" refY="0"><path id="path2550-8-5-5-4-4" d="M 8.7185878,4.0337352 -2.2072895,0.01601326 8.7185884,-4.0017078 c -1.7454984,2.3720609 -1.7354408,5.6174519 -6e-7,8.035443 z" transform="matrix(-0.3,0,0,-0.3,0.69,0)" style="fill:#000;fill-opacity:1;fill-rule:evenodd;stroke:#000;stroke-width:.625;stroke-linejoin:round;stroke-opacity:1"/></marker><marker style="overflow:visible" id="Arrow2Send-4-9-1-2-7-2" orient="auto" refX="0" refY="0"><path id="path2550-8-5-5-4-4-6" d="M 8.7185878,4.0337352 -2.2072895,0.01601326 8.7185884,-4.0017078 c -1.7454984,2.3720609 -1.7354408,5.6174519 -6e-7,8.035443 z" transform="matrix(-0.3,0,0,-0.3,0.69,0)" style="fill:#000;fill-opacity:1;fill-rule:evenodd;stroke:#000;stroke-width:.625;stroke-linejoin:round;stroke-opacity:1"/></marker><marker style="overflow:visible" id="Arrow2Send-4-9-4-3-8-4-3-7-4-1-7" orient="auto" refX="0" refY="0"><path id="path2550-8-5-7-4-5-7-4-8-2-0-5" d="M 8.7185878,4.0337352 -2.2072895,0.01601326 8.7185884,-4.0017078 c -1.7454984,2.3720609 -1.7354408,5.6174519 -6e-7,8.035443 z" transform="matrix(-0.3,0,0,-0.3,0.69,0)" style="fill:#000;fill-opacity:1;fill-rule:evenodd;stroke:#000;stroke-width:.625;stroke-linejoin:round;stroke-opacity:1"/></marker><marker style="overflow:visible" id="Arrow2Send-4-9-1-2-71" orient="auto" refX="0" refY="0"><path id="path2550-8-5-5-4-0" d="M 8.7185878,4.0337352 -2.2072895,0.01601326 8.7185884,-4.0017078 c -1.7454984,2.3720609 -1.7354408,5.6174519 -6e-7,8.035443 z" transform="matrix(-0.3,0,0,-0.3,0.69,0)" style="fill:#000;fill-opacity:1;fill-rule:evenodd;stroke:#000;stroke-width:.625;stroke-linejoin:round;stroke-opacity:1"/></marker><marker style="overflow:visible" id="Arrow2Send-4-9-4-3-8-4-3-7-4-4" orient="auto" refX="0" refY="0"><path id="path2550-8-5-7-4-5-7-4-8-2-9" d="M 8.7185878,4.0337352 -2.2072895,0.01601326 8.7185884,-4.0017078 c -1.7454984,2.3720609 -1.7354408,5.6174519 -6e-7,8.035443 z" transform="matrix(-0.3,0,0,-0.3,0.69,0)" style="fill:#000;fill-opacity:1;fill-rule:evenodd;stroke:#000;stroke-width:.625;stroke-linejoin:round;stroke-opacity:1"/></marker><marker style="overflow:visible" id="Arrow2Send-4-9-2-7-5-45" orient="auto" refX="0" refY="0"><path id="path2550-8-5-2-2-0-8" d="M 8.7185878,4.0337352 -2.2072895,0.01601326 8.7185884,-4.0017078 c -1.7454984,2.3720609 -1.7354408,5.6174519 -6e-7,8.035443 z" transform="matrix(-0.3,0,0,-0.3,0.69,0)" style="fill:#000;fill-opacity:1;fill-rule:evenodd;stroke:#000;stroke-width:.625;stroke-linejoin:round;stroke-opacity:1"/></marker><marker style="overflow:visible" id="Arrow2Send-4-9-4-3-8-4-3-4-3" orient="auto" refX="0" refY="0"><path id="path2550-8-5-7-4-5-7-4-3-8" d="M 8.7185878,4.0337352 -2.2072895,0.01601326 8.7185884,-4.0017078 c -1.7454984,2.3720609 -1.7354408,5.6174519 -6e-7,8.035443 z" transform="matrix(-0.3,0,0,-0.3,0.69,0)" style="fill:#000;fill-opacity:1;fill-rule:evenodd;stroke:#000;stroke-width:.625;stroke-linejoin:round;stroke-opacity:1"/></marker><marker style="overflow:visible" id="Arrow2Send-4-9-2-3" orient="auto" refX="0" refY="0"><path id="path2550-8-5-0-5" d="M 8.7185878,4.0337352 -2.2072895,0.01601326 8.7185884,-4.0017078 c -1.7454984,2.3720609 -1.7354408,5.6174519 -6e-7,8.035443 z" transform="matrix(-0.3,0,0,-0.3,0.69,0)" style="fill:#000;fill-opacity:1;fill-rule:evenodd;stroke:#000;stroke-width:.625;stroke-linejoin:round;stroke-opacity:1"/></marker><marker style="overflow:visible" id="Arrow2Send-4-9-4-3-8-4-3-4-3-6" orient="auto" refX="0" refY="0"><path id="path2550-8-5-7-4-5-7-4-3-8-7" d="M 8.7185878,4.0337352 -2.2072895,0.01601326 8.7185884,-4.0017078 c -1.7454984,2.3720609 -1.7354408,5.6174519 -6e-7,8.035443 z" transform="matrix(-0.3,0,0,-0.3,0.69,0)" style="fill:#000;fill-opacity:1;fill-rule:evenodd;stroke:#000;stroke-width:.625;stroke-linejoin:round;stroke-opacity:1"/></marker><marker style="overflow:visible" id="Arrow2Send-4-9-2-3-5" orient="auto" refX="0" refY="0"><path id="path2550-8-5-0-5-0" d="M 8.7185878,4.0337352 -2.2072895,0.01601326 8.7185884,-4.0017078 c -1.7454984,2.3720609 -1.7354408,5.6174519 -6e-7,8.035443 z" transform="matrix(-0.3,0,0,-0.3,0.69,0)" style="fill:#000;fill-opacity:1;fill-rule:evenodd;stroke:#000;stroke-width:.625;stroke-linejoin:round;stroke-opacity:1"/></marker><marker style="overflow:visible" id="Arrow2Send-4-9-4-3-8-4-3-4-3-6-4" orient="auto" refX="0" refY="0"><path id="path2550-8-5-7-4-5-7-4-3-8-7-4" d="M 8.7185878,4.0337352 -2.2072895,0.01601326 8.7185884,-4.0017078 c -1.7454984,2.3720609 -1.7354408,5.6174519 -6e-7,8.035443 z" transform="matrix(-0.3,0,0,-0.3,0.69,0)" style="fill:#000;fill-opacity:1;fill-rule:evenodd;stroke:#000;stroke-width:.625;stroke-linejoin:round;stroke-opacity:1"/></marker><marker style="overflow:visible" id="Arrow2Send-4-9-2-3-5-4" orient="auto" refX="0" refY="0"><path id="path2550-8-5-0-5-0-3" d="M 8.7185878,4.0337352 -2.2072895,0.01601326 8.7185884,-4.0017078 c -1.7454984,2.3720609 -1.7354408,5.6174519 -6e-7,8.035443 z" transform="matrix(-0.3,0,0,-0.3,0.69,0)" style="fill:#000;fill-opacity:1;fill-rule:evenodd;stroke:#000;stroke-width:.625;stroke-linejoin:round;stroke-opacity:1"/></marker><marker style="overflow:visible" id="Arrow2Send-4-9-2-3-5-4-2" orient="auto" refX="0" refY="0"><path id="path2550-8-5-0-5-0-3-6" d="M 8.7185878,4.0337352 -2.2072895,0.01601326 8.7185884,-4.0017078 c -1.7454984,2.3720609 -1.7354408,5.6174519 -6e-7,8.035443 z" transform="matrix(-0.3,0,0,-0.3,0.69,0)" style="fill:#000;fill-opacity:1;fill-rule:evenodd;stroke:#000;stroke-width:.625;stroke-linejoin:round;stroke-opacity:1"/></marker><marker style="overflow:visible" id="Arrow2Send-4-9-4-3-8-4-3-4-3-6-4-1" orient="auto" refX="0" refY="0"><path id="path2550-8-5-7-4-5-7-4-3-8-7-4-7" d="M 8.7185878,4.0337352 -2.2072895,0.01601326 8.7185884,-4.0017078 c -1.7454984,2.3720609 -1.7354408,5.6174519 -6e-7,8.035443 z" transform="matrix(-0.3,0,0,-0.3,0.69,0)" style="fill:#000;fill-opacity:1;fill-rule:evenodd;stroke:#000;stroke-width:.625;stroke-linejoin:round;stroke-opacity:1"/></marker></defs><flowRoot id="flowRoot3421-8" transform="translate(-341.75446,-296.82168)" xml:space="preserve" style="font-style:normal;font-weight:400;font-size:40px;line-height:1.25;font-family:sans-serif;letter-spacing:0;word-spacing:0;fill:#000;fill-opacity:1;stroke:none"><flowRegion id="flowRegion3423-4"><rect id="rect3425-5" width="191.929" height="89.146" x="250.897" y="235.858"/></flowRegion><flowPara id="flowPara3427-8"/></flowRoot><flowRoot id="flowRoot10659-3" transform="translate(-151.16649,-118.42759)" xml:space="preserve" style="font-style:normal;font-weight:400;font-size:16px;line-height:1.25;font-family:sans-serif;letter-spacing:0;word-spacing:0;fill:#000;fill-opacity:1;stroke:none"><flowRegion id="flowRegion10661-2" style="font-size:16px"><rect id="rect10663-5" width="802.143" height="277.143" x="-105.357" y="-45.121" style="font-size:16px"/></flowRegion><flowPara id="flowPara10665-0"/></flowRoot><path style="fill:none;stroke:#000;stroke-width:.99999982px;stroke-linecap:butt;stroke-linejoin:miter;stroke-opacity:1" id="path3009-9" d="M 157.72482,85.957599 Z"/><path style="fill:none;stroke:#000;stroke-width:4.18004227;stroke-linecap:butt;stroke-linejoin:miter;stroke-miterlimit:4;stroke-dasharray:none;stroke-opacity:1;marker-end:url(#Arrow2Send-4-9-2-3)" id="path2507-1-1-60" d="m 33.009241,74.468929 32.2027,0.072"/><text xml:space="preserve" style="font-style:normal;font-weight:400;font-size:39.99999237px;line-height:1.25;font-family:sans-serif;letter-spacing:0;word-spacing:0;fill:#000;fill-opacity:1;stroke:none;stroke-width:.99999982" id="text10323-0" x="-2.055" y="62.824"><tspan id="tspan10321-66" x="-2.055" y="62.824" style="font-style:italic;font-size:15.99999714px;line-height:2.25;stroke-width:.99999982">IV = CV<tspan style="font-size:10.39999676px;baseline-shift:sub;stroke-width:.99999982" id="tspan11010-2">0</tspan></tspan></text><text xml:space="preserve" style="font-style:normal;font-weight:400;font-size:39.99999237px;line-height:1.25;font-family:sans-serif;letter-spacing:0;word-spacing:0;fill:#000;fill-opacity:1;stroke:none;stroke-width:.99999982" id="text10323-2-9" x="319.731" y="60.181"><tspan id="tspan10321-6-2" x="319.731" y="60.181" style="font-style:italic;font-size:15.99999714px;line-height:2.25;stroke-width:.99999982">CV<tspan id="tspan1249" style="font-size:10.39999676px;baseline-shift:sub;stroke-width:.99999982">n-1</tspan></tspan></text><text xml:space="preserve" style="font-style:normal;font-weight:400;font-size:39.99999237px;line-height:1.25;font-family:sans-serif;letter-spacing:0;word-spacing:0;fill:#000;fill-opacity:1;stroke:none;stroke-width:.99999982" id="text10323-6-3" x="535.098" y="92.05"><tspan id="tspan10321-7-3" x="535.098" y="92.05" style="font-style:italic;font-size:15.99999714px;line-height:2.25;stroke-width:.99999982">h(x)</tspan></text><path style="opacity:.32300002;fill:#000;fill-opacity:1;fill-rule:nonzero;stroke:#000;stroke-width:1.0691911;stroke-linejoin:round;stroke-miterlimit:4;stroke-dasharray:none;stroke-dashoffset:0;stroke-opacity:1;paint-order:normal" id="rect2466-38-0-2-2" d="m 74.050051,43.236259 91.055629,20.66257 0.40119,35.43334 -91.456759,19.654781 z"/><text xml:space="preserve" style="font-style:normal;font-weight:400;font-size:18.66666412px;line-height:1.25;font-family:sans-serif;letter-spacing:0;word-spacing:0;fill:#000;fill-opacity:1;stroke:none;stroke-width:2.33123302" id="text2487-65-7-9-9-3-8-7-6" x="123.728" y="80.751" transform="scale(0.92229474,1.0842521)"><tspan id="tspan2485-6-9-1-8-7-3-5-6" x="123.728" y="80.751" style="font-style:italic;font-size:18.66666412px;line-height:3.25;stroke-width:2.33123302">f</tspan></text><g id="g9601-2-0-0-9-9" transform="matrix(3.0926668,0,0,3.3658429,-154.87217,-171.98063)"><path id="path2507-1-1-5-6-7-8-5-03" d="m 63.420537,64.355188 7.492668,0.01974" style="fill:none;stroke:#000;stroke-width:1.20052516;stroke-linecap:butt;stroke-linejoin:miter;stroke-miterlimit:4;stroke-dasharray:none;stroke-opacity:1;marker-end:url(#Arrow2Send-4-9-4-3-8-4-3-4-3)"/><path id="path2507-1-1-5-4-0-5-3-4-9" d="m 63.656655,55.989757 -0.162009,8.953531" style="fill:none;stroke:#000;stroke-width:1.19051707;stroke-linecap:butt;stroke-linejoin:miter;stroke-miterlimit:4;stroke-dasharray:none;stroke-opacity:1"/></g><path style="fill:none;stroke:#000;stroke-width:6.35781527;stroke-linecap:butt;stroke-linejoin:miter;stroke-miterlimit:4;stroke-dasharray:none;stroke-opacity:1;marker-end:url(#Arrow2Send-4-9-2-7-5-45)" id="path2507-1-1-82-2-2" d="m 481.80072,85.555179 36.09486,0.40536"/><text xml:space="preserve" style="font-style:normal;font-weight:400;font-size:39.99999237px;line-height:1.25;font-family:sans-serif;letter-spacing:0;word-spacing:0;fill:#000;fill-opacity:1;stroke:none;stroke-width:.99999982" id="text10323-9-3" x="35.945" y="10.181"><tspan id="tspan10321-9-56" x="35.945" y="10.181" style="font-style:italic;font-size:15.99999714px;line-height:2.25;stroke-width:.99999982"><tspan style="font-size:18.66666412px;stroke-width:.99999982" id="tspan11795-6">x</tspan><tspan id="tspan956" style="font-size:10.39999676px;baseline-shift:sub;stroke-width:.99999982">0</tspan></tspan></text><text xml:space="preserve" style="font-style:normal;font-weight:400;font-size:39.99999237px;line-height:1.25;font-family:sans-serif;letter-spacing:0;word-spacing:0;fill:#000;fill-opacity:1;stroke:none;stroke-width:.99999982" id="text10323-9-4-0" x="345.945" y="11.752"><tspan id="tspan10321-9-5-4" x="345.945" y="11.752" style="font-style:italic;font-size:15.99999714px;line-height:2.25;stroke-width:.99999982">X<tspan id="tspan1247" style="font-size:10.39999676px;baseline-shift:sub;stroke-width:.99999982">n</tspan></tspan></text><g id="g9601-2-0-0-9-0-3" transform="matrix(3.0926666,0,0,3.3658429,152.98501,-172.33777)"><path id="path2507-1-1-5-6-7-8-5-0-6" d="m 63.420537,64.355188 7.492668,0.01974" style="fill:none;stroke:#000;stroke-width:1.20052516;stroke-linecap:butt;stroke-linejoin:miter;stroke-miterlimit:4;stroke-dasharray:none;stroke-opacity:1;marker-end:url(#Arrow2Send-4-9-4-3-8-4-3-7-4-4)"/><path id="path2507-1-1-5-4-0-5-3-4-0-8" d="m 63.656655,55.989757 -0.162009,8.953531" style="fill:none;stroke:#000;stroke-width:1.19051707;stroke-linecap:butt;stroke-linejoin:miter;stroke-miterlimit:4;stroke-dasharray:none;stroke-opacity:1"/></g><path style="fill:none;stroke:#000;stroke-width:4.50752211;stroke-linecap:butt;stroke-linejoin:miter;stroke-miterlimit:4;stroke-dasharray:4.50752228,4.50752228;stroke-dashoffset:0;stroke-opacity:1;marker-end:url(#Arrow2Send-4-9-1-2-71)" id="path2507-1-1-7-8" d="m 324.14434,70.333799 48.47513,0.0556"/><path style="opacity:.32300002;fill:#000;fill-opacity:1;fill-rule:nonzero;stroke:#000;stroke-width:1.0691911;stroke-linejoin:round;stroke-miterlimit:4;stroke-dasharray:none;stroke-dashoffset:0;stroke-opacity:1;paint-order:normal" id="rect2466-38-0-2-9" d="m 382.94673,42.868919 91.05607,20.66257 0.40119,35.43333 -91.4572,19.654781 z"/><text xml:space="preserve" style="font-style:normal;font-weight:400;font-size:18.66666603px;line-height:1.25;font-family:sans-serif;letter-spacing:0;word-spacing:0;fill:#000;fill-opacity:1;stroke:none;stroke-width:2.33123302" id="text2487-65-7-9-9-3-8-7-0" x="458.651" y="80.412" transform="scale(0.92229474,1.0842521)"><tspan id="tspan2485-6-9-1-8-7-3-5-9" x="458.651" y="80.412" style="font-style:italic;font-size:18.66666603px;line-height:3.25;stroke-width:2.33123302">f</tspan></text><text xml:space="preserve" style="font-style:normal;font-weight:400;font-size:39.99999237px;line-height:1.25;font-family:sans-serif;letter-spacing:0;word-spacing:0;fill:#000;fill-opacity:1;stroke:none;stroke-width:.99999982" id="text10323-2-9-4" x="174.989" y="60.473"><tspan id="tspan10321-6-2-5" x="174.989" y="60.473" style="font-style:italic;font-size:15.99999714px;line-height:2.25;stroke-width:.99999982">CV<tspan id="tspan1249-1" style="font-size:10.3999958px;baseline-shift:sub;stroke-width:.99999982">1</tspan></tspan></text><text xml:space="preserve" style="font-style:normal;font-weight:400;font-size:39.99999237px;line-height:1.25;font-family:sans-serif;letter-spacing:0;word-spacing:0;fill:#000;fill-opacity:1;stroke:none;stroke-width:.99999982" id="text10323-9-4-0-8" x="187.203" y="12.044"><tspan id="tspan10321-9-5-4-3" x="187.203" y="12.044" style="font-style:italic;font-size:15.99999714px;line-height:2.25;stroke-width:.99999982">X<tspan id="tspan1247-2" style="font-size:10.3999958px;baseline-shift:sub;stroke-width:.99999982">1</tspan></tspan></text><g id="g9601-2-0-0-9-0-3-3" transform="matrix(3.0926667,0,0,3.3658429,-5.7570092,-172.0459)"><path id="path2507-1-1-5-6-7-8-5-0-6-2" d="m 63.420537,64.355188 7.492668,0.01974" style="fill:none;stroke:#000;stroke-width:1.20052516;stroke-linecap:butt;stroke-linejoin:miter;stroke-miterlimit:4;stroke-dasharray:none;stroke-opacity:1;marker-end:url(#Arrow2Send-4-9-4-3-8-4-3-7-4-1-7)"/><path id="path2507-1-1-5-4-0-5-3-4-0-8-1" d="m 63.656655,55.989757 -0.162009,8.953531" style="fill:none;stroke:#000;stroke-width:1.19051707;stroke-linecap:butt;stroke-linejoin:miter;stroke-miterlimit:4;stroke-dasharray:none;stroke-opacity:1"/></g><path style="fill:none;stroke:#000;stroke-width:4.18004227;stroke-linecap:butt;stroke-linejoin:miter;stroke-miterlimit:4;stroke-dasharray:none;stroke-opacity:1;marker-end:url(#Arrow2Send-4-9-1-2-7-2)" id="path2507-1-1-7-8-6" d="m 181.12439,70.617959 32.20272,0.072"/><path style="opacity:.32300002;fill:#000;fill-opacity:1;fill-rule:nonzero;stroke:#000;stroke-width:1.0691911;stroke-linejoin:round;stroke-miterlimit:4;stroke-dasharray:none;stroke-dashoffset:0;stroke-opacity:1;paint-order:normal" id="rect2466-38-0-2-9-5" d="m 222.20468,43.160789 91.05564,20.66258 0.40118,35.43333 -91.45676,19.654781 z"/><text xml:space="preserve" style="font-style:normal;font-weight:400;font-size:18.66666603px;line-height:1.25;font-family:sans-serif;letter-spacing:0;word-spacing:0;fill:#000;fill-opacity:1;stroke:none;stroke-width:2.33123302" id="text2487-65-7-9-9-3-8-7-0-9" x="284.365" y="80.681" transform="scale(0.92229474,1.0842521)"><tspan id="tspan2485-6-9-1-8-7-3-5-9-2" x="284.365" y="80.681" style="font-style:italic;font-size:18.66666603px;line-height:3.25;stroke-width:2.33123302">f</tspan></text><g id="g9601-2-0-0-9-9-5" transform="matrix(3.0926668,0,0,-3.3658429,-155.67139,329.26403)"><path id="path2507-1-1-5-6-7-8-5-03-1" d="m 63.420537,64.355188 7.492668,0.01974" style="fill:none;stroke:#000;stroke-width:1.20052516;stroke-linecap:butt;stroke-linejoin:miter;stroke-miterlimit:4;stroke-dasharray:none;stroke-opacity:1;marker-end:url(#Arrow2Send-4-9-4-3-8-4-3-4-3-6)"/><path id="path2507-1-1-5-4-0-5-3-4-9-3" d="m 63.656655,55.989757 -0.162009,8.953531" style="fill:none;stroke:#000;stroke-width:1.19051707;stroke-linecap:butt;stroke-linejoin:miter;stroke-miterlimit:4;stroke-dasharray:none;stroke-opacity:1"/></g><path style="fill:none;stroke:#000;stroke-width:4.18004227;stroke-linecap:butt;stroke-linejoin:miter;stroke-miterlimit:4;stroke-dasharray:none;stroke-opacity:1;marker-end:url(#Arrow2Send-4-9-2-3-5)" id="path2507-1-1-60-4" d="m 31.215384,99.51032 32.2027,0.072"/><text xml:space="preserve" style="font-style:normal;font-weight:400;font-size:39.99999237px;line-height:1.25;font-family:sans-serif;letter-spacing:0;word-spacing:0;fill:#000;fill-opacity:1;stroke:none;stroke-width:.99999982" id="text10323-0-7" x="24.929" y="91.406"><tspan id="tspan10321-66-7" x="24.929" y="91.406" style="font-style:italic;font-size:15.99999714px;line-height:2.25;stroke-width:.99999982">salt</tspan></text><text xml:space="preserve" style="font-style:normal;font-weight:400;font-size:39.99999237px;line-height:1.25;font-family:sans-serif;letter-spacing:0;word-spacing:0;fill:#000;fill-opacity:1;stroke:none;stroke-width:.99999982" id="text10323-0-7-2" x="11.321" y="152.34"><tspan id="tspan10321-66-7-2" x="11.321" y="152.34" style="font-style:italic;font-size:15.99999714px;line-height:2.25;stroke-width:.99999982">counter</tspan></text><g id="g9601-2-0-0-9-9-5-5" transform="matrix(3.0926668,0,0,-3.3658429,-6.8997468,328.63599)"><path id="path2507-1-1-5-6-7-8-5-03-1-8" d="m 63.420537,64.355188 7.492668,0.01974" style="fill:none;stroke:#000;stroke-width:1.20052516;stroke-linecap:butt;stroke-linejoin:miter;stroke-miterlimit:4;stroke-dasharray:none;stroke-opacity:1;marker-end:url(#Arrow2Send-4-9-4-3-8-4-3-4-3-6-4)"/><path id="path2507-1-1-5-4-0-5-3-4-9-3-3" d="m 63.656655,55.989757 -0.162009,8.953531" style="fill:none;stroke:#000;stroke-width:1.19051707;stroke-linecap:butt;stroke-linejoin:miter;stroke-miterlimit:4;stroke-dasharray:none;stroke-opacity:1"/></g><path style="fill:none;stroke:#000;stroke-width:4.18004227;stroke-linecap:butt;stroke-linejoin:miter;stroke-miterlimit:4;stroke-dasharray:none;stroke-opacity:1;marker-end:url(#Arrow2Send-4-9-2-3-5-4)" id="path2507-1-1-60-4-7" d="m 179.98703,98.88228 32.2027,0.072"/><text xml:space="preserve" style="font-style:normal;font-weight:400;font-size:39.99999237px;line-height:1.25;font-family:sans-serif;letter-spacing:0;word-spacing:0;fill:#000;fill-opacity:1;stroke:none;stroke-width:.99999982" id="text10323-0-7-5" x="173.701" y="90.778"><tspan id="tspan10321-66-7-1" x="173.701" y="90.778" style="font-style:italic;font-size:15.99999714px;line-height:2.25;stroke-width:.99999982">salt</tspan></text><text xml:space="preserve" style="font-style:normal;font-weight:400;font-size:39.99999237px;line-height:1.25;font-family:sans-serif;letter-spacing:0;word-spacing:0;fill:#000;fill-opacity:1;stroke:none;stroke-width:.99999982" id="text10323-0-7-2-7" x="160.392" y="151.517"><tspan id="tspan10321-66-7-2-7" x="160.392" y="151.517" style="font-style:italic;font-size:15.99999714px;line-height:2.25;stroke-width:.99999982">counter</tspan></text><g id="g9601-2-0-0-9-9-5-5-2" transform="matrix(3.0926668,0,0,-3.3658429,153.84727,330.06473)"><path id="path2507-1-1-5-6-7-8-5-03-1-8-4" d="m 63.420537,64.355188 7.492668,0.01974" style="fill:none;stroke:#000;stroke-width:1.20052516;stroke-linecap:butt;stroke-linejoin:miter;stroke-miterlimit:4;stroke-dasharray:none;stroke-opacity:1;marker-end:url(#Arrow2Send-4-9-4-3-8-4-3-4-3-6-4-1)"/><path id="path2507-1-1-5-4-0-5-3-4-9-3-3-5" d="m 63.656655,55.989757 -0.162009,8.953531" style="fill:none;stroke:#000;stroke-width:1.19051707;stroke-linecap:butt;stroke-linejoin:miter;stroke-miterlimit:4;stroke-dasharray:none;stroke-opacity:1"/></g><path style="fill:none;stroke:#000;stroke-width:4.18004227;stroke-linecap:butt;stroke-linejoin:miter;stroke-miterlimit:4;stroke-dasharray:none;stroke-opacity:1;marker-end:url(#Arrow2Send-4-9-2-3-5-4-2)" id="path2507-1-1-60-4-7-4" d="m 340.73405,100.31102 32.2027,0.072"/><text xml:space="preserve" style="font-style:normal;font-weight:400;font-size:39.99999237px;line-height:1.25;font-family:sans-serif;letter-spacing:0;word-spacing:0;fill:#000;fill-opacity:1;stroke:none;stroke-width:.99999982" id="text10323-0-7-5-2" x="334.448" y="92.206"><tspan id="tspan10321-66-7-1-7" x="334.448" y="92.206" style="font-style:italic;font-size:15.99999714px;line-height:2.25;stroke-width:.99999982">salt</tspan></text><text xml:space="preserve" style="font-style:normal;font-weight:400;font-size:39.99999237px;line-height:1.25;font-family:sans-serif;letter-spacing:0;word-spacing:0;fill:#000;fill-opacity:1;stroke:none;stroke-width:.99999982" id="text10323-0-7-2-7-2" x="321.139" y="152.946"><tspan id="tspan10321-66-7-2-7-0" x="321.139" y="152.946" style="font-style:italic;font-size:15.99999714px;line-height:2.25;stroke-width:.99999982">counter</tspan></text></svg>