<svg xmlns="http://www.w3.org/2000/svg" xmlns:osb="http://www.openswatchbook.org/uri/2009/osb" xmlns:svg="http://www.w3.org/2000/svg" id="svg8" width="753.282" height="166.478" version="1.1" viewBox="0 0 199.306 44.047"><defs id="defs2"><marker style="overflow:visible" id="marker3079" orient="auto" refX="0" refY="0"><path id="path3077" d="M 8.7185878,4.0337352 -2.2072895,0.01601326 8.7185884,-4.0017078 c -1.7454984,2.3720609 -1.7354408,5.6174519 -6e-7,8.035443 z" transform="matrix(-0.3,0,0,-0.3,0.69,0)" style="fill:#170000;fill-opacity:1;fill-rule:evenodd;stroke:#170000;stroke-width:.625;stroke-linejoin:round;stroke-opacity:1"/></marker><marker style="overflow:visible" id="marker3021" orient="auto" refX="0" refY="0"><path id="path3019" d="M 8.7185878,4.0337352 -2.2072895,0.01601326 8.7185884,-4.0017078 c -1.7454984,2.3720609 -1.7354408,5.6174519 -6e-7,8.035443 z" transform="matrix(-0.3,0,0,-0.3,0.69,0)" style="fill:#170000;fill-opacity:1;fill-rule:evenodd;stroke:#170000;stroke-width:.625;stroke-linejoin:round;stroke-opacity:1"/></marker><marker id="Arrow2Sstart" orient="auto" refX="0" refY="0" style="overflow:visible"><path id="path2547" style="fill:#170000;fill-opacity:1;fill-rule:evenodd;stroke:#170000;stroke-width:.625;stroke-linejoin:round;stroke-opacity:1" d="M 8.7185878,4.0337352 -2.2072895,0.01601326 8.7185884,-4.0017078 c -1.7454984,2.3720609 -1.7354408,5.6174519 -6e-7,8.035443 z" transform="matrix(0.3,0,0,0.3,-0.69,0)"/></marker><marker id="marker2833" orient="auto" refX="0" refY="0" style="overflow:visible"><path id="path2831" d="M 0,0 5,-5 -12.5,0 5,5 Z" style="fill:#000;fill-opacity:1;fill-rule:evenodd;stroke:#000;stroke-width:1.00000003pt;stroke-opacity:1" transform="matrix(0.8,0,0,0.8,10,0)"/></marker><marker id="Arrow1Lend" orient="auto" refX="0" refY="0" style="overflow:visible"><path id="path2520" d="M 0,0 5,-5 -12.5,0 5,5 Z" style="fill:#000;fill-opacity:1;fill-rule:evenodd;stroke:#000;stroke-width:1.00000003pt;stroke-opacity:1" transform="matrix(-0.8,0,0,-0.8,-10,0)"/></marker><marker id="Arrow1Lstart" orient="auto" refX="0" refY="0" style="overflow:visible"><path id="path2517" d="M 0,0 5,-5 -12.5,0 5,5 Z" style="fill:#000;fill-opacity:1;fill-rule:evenodd;stroke:#000;stroke-width:1.00000003pt;stroke-opacity:1" transform="matrix(0.8,0,0,0.8,10,0)"/></marker><linearGradient id="linearGradient2316" osb:paint="solid"><stop style="stop-color:#000;stop-opacity:1" id="stop2314" offset="0"/></linearGradient><linearGradient id="linearGradient843" osb:paint="solid"><stop style="stop-color:#000;stop-opacity:1" id="stop841" offset="0"/></linearGradient><linearGradient id="linearGradient825" osb:paint="gradient"><stop style="stop-color:#000;stop-opacity:1" id="stop821" offset="0"/><stop style="stop-color:#bd3b3b;stop-opacity:0" id="stop823" offset="1"/></linearGradient><marker id="Arrow2Sstart-1" orient="auto" refX="0" refY="0" style="overflow:visible"><path id="path2547-3" style="fill:#170000;fill-opacity:1;fill-rule:evenodd;stroke:#170000;stroke-width:.625;stroke-linejoin:round;stroke-opacity:1" d="M 8.7185878,4.0337352 -2.2072895,0.01601326 8.7185884,-4.0017078 c -1.7454984,2.3720609 -1.7354408,5.6174519 -6e-7,8.035443 z" transform="matrix(0.3,0,0,0.3,-0.69,0)"/></marker><marker id="Arrow2Sstart-1-5" orient="auto" refX="0" refY="0" style="overflow:visible"><path id="path2547-3-5" style="fill:#170000;fill-opacity:1;fill-rule:evenodd;stroke:#170000;stroke-width:.625;stroke-linejoin:round;stroke-opacity:1" d="M 8.7185878,4.0337352 -2.2072895,0.01601326 8.7185884,-4.0017078 c -1.7454984,2.3720609 -1.7354408,5.6174519 -6e-7,8.035443 z" transform="matrix(0.3,0,0,0.3,-0.69,0)"/></marker><marker id="Arrow2Send-4-9" orient="auto" refX="0" refY="0" style="overflow:visible"><path id="path2550-8-5" style="fill:#000;fill-opacity:1;fill-rule:evenodd;stroke:#000;stroke-width:.625;stroke-linejoin:round;stroke-opacity:1" d="M 8.7185878,4.0337352 -2.2072895,0.01601326 8.7185884,-4.0017078 c -1.7454984,2.3720609 -1.7354408,5.6174519 -6e-7,8.035443 z" transform="matrix(-0.3,0,0,-0.3,0.69,0)"/></marker><marker id="Arrow2Send-4-8" orient="auto" refX="0" refY="0" style="overflow:visible"><path id="path2550-8-6" style="fill:#000;fill-opacity:1;fill-rule:evenodd;stroke:#000;stroke-width:.625;stroke-linejoin:round;stroke-opacity:1" d="M 8.7185878,4.0337352 -2.2072895,0.01601326 8.7185884,-4.0017078 c -1.7454984,2.3720609 -1.7354408,5.6174519 -6e-7,8.035443 z" transform="matrix(-0.3,0,0,-0.3,0.69,0)"/></marker><marker id="Arrow2Send-4-9-4-3-8-4-3" orient="auto" refX="0" refY="0" style="overflow:visible"><path id="path2550-8-5-7-4-5-7-4" style="fill:#000;fill-opacity:1;fill-rule:evenodd;stroke:#000;stroke-width:.625;stroke-linejoin:round;stroke-opacity:1" d="M 8.7185878,4.0337352 -2.2072895,0.01601326 8.7185884,-4.0017078 c -1.7454984,2.3720609 -1.7354408,5.6174519 -6e-7,8.035443 z" transform="matrix(-0.3,0,0,-0.3,0.69,0)"/></marker><marker id="Arrow2Send-4-9-2-7" orient="auto" refX="0" refY="0" style="overflow:visible"><path id="path2550-8-5-2-2" style="fill:#000;fill-opacity:1;fill-rule:evenodd;stroke:#000;stroke-width:.625;stroke-linejoin:round;stroke-opacity:1" d="M 8.7185878,4.0337352 -2.2072895,0.01601326 8.7185884,-4.0017078 c -1.7454984,2.3720609 -1.7354408,5.6174519 -6e-7,8.035443 z" transform="matrix(-0.3,0,0,-0.3,0.69,0)"/></marker><marker id="Arrow2Send-4-9-4-3-8-4-3-7" orient="auto" refX="0" refY="0" style="overflow:visible"><path id="path2550-8-5-7-4-5-7-4-8" style="fill:#000;fill-opacity:1;fill-rule:evenodd;stroke:#000;stroke-width:.625;stroke-linejoin:round;stroke-opacity:1" d="M 8.7185878,4.0337352 -2.2072895,0.01601326 8.7185884,-4.0017078 c -1.7454984,2.3720609 -1.7354408,5.6174519 -6e-7,8.035443 z" transform="matrix(-0.3,0,0,-0.3,0.69,0)"/></marker><marker id="Arrow2Send-4-9-4-3-8-4-3-0" orient="auto" refX="0" refY="0" style="overflow:visible"><path id="path2550-8-5-7-4-5-7-4-6" style="fill:#000;fill-opacity:1;fill-rule:evenodd;stroke:#000;stroke-width:.625;stroke-linejoin:round;stroke-opacity:1" d="M 8.7185878,4.0337352 -2.2072895,0.01601326 8.7185884,-4.0017078 c -1.7454984,2.3720609 -1.7354408,5.6174519 -6e-7,8.035443 z" transform="matrix(-0.3,0,0,-0.3,0.69,0)"/></marker><marker id="Arrow2Send-4-9-1" orient="auto" refX="0" refY="0" style="overflow:visible"><path id="path2550-8-5-5" style="fill:#000;fill-opacity:1;fill-rule:evenodd;stroke:#000;stroke-width:.625;stroke-linejoin:round;stroke-opacity:1" d="M 8.7185878,4.0337352 -2.2072895,0.01601326 8.7185884,-4.0017078 c -1.7454984,2.3720609 -1.7354408,5.6174519 -6e-7,8.035443 z" transform="matrix(-0.3,0,0,-0.3,0.69,0)"/></marker><marker id="Arrow2Send-4-9-2" orient="auto" refX="0" refY="0" style="overflow:visible"><path id="path2550-8-5-0" style="fill:#000;fill-opacity:1;fill-rule:evenodd;stroke:#000;stroke-width:.625;stroke-linejoin:round;stroke-opacity:1" d="M 8.7185878,4.0337352 -2.2072895,0.01601326 8.7185884,-4.0017078 c -1.7454984,2.3720609 -1.7354408,5.6174519 -6e-7,8.035443 z" transform="matrix(-0.3,0,0,-0.3,0.69,0)"/></marker><marker id="Arrow2Send-4-8-3" orient="auto" refX="0" refY="0" style="overflow:visible"><path id="path2550-8-6-2" style="fill:#000;fill-opacity:1;fill-rule:evenodd;stroke:#000;stroke-width:.625;stroke-linejoin:round;stroke-opacity:1" d="M 8.7185878,4.0337352 -2.2072895,0.01601326 8.7185884,-4.0017078 c -1.7454984,2.3720609 -1.7354408,5.6174519 -6e-7,8.035443 z" transform="matrix(-0.3,0,0,-0.3,0.69,0)"/></marker><marker id="Arrow2Send-4-9-4-3-8-4-3-4" orient="auto" refX="0" refY="0" style="overflow:visible"><path id="path2550-8-5-7-4-5-7-4-3" style="fill:#000;fill-opacity:1;fill-rule:evenodd;stroke:#000;stroke-width:.625;stroke-linejoin:round;stroke-opacity:1" d="M 8.7185878,4.0337352 -2.2072895,0.01601326 8.7185884,-4.0017078 c -1.7454984,2.3720609 -1.7354408,5.6174519 -6e-7,8.035443 z" transform="matrix(-0.3,0,0,-0.3,0.69,0)"/></marker><marker id="Arrow2Send-4-9-2-7-5" orient="auto" refX="0" refY="0" style="overflow:visible"><path id="path2550-8-5-2-2-0" style="fill:#000;fill-opacity:1;fill-rule:evenodd;stroke:#000;stroke-width:.625;stroke-linejoin:round;stroke-opacity:1" d="M 8.7185878,4.0337352 -2.2072895,0.01601326 8.7185884,-4.0017078 c -1.7454984,2.3720609 -1.7354408,5.6174519 -6e-7,8.035443 z" transform="matrix(-0.3,0,0,-0.3,0.69,0)"/></marker><marker id="Arrow2Send-4-9-4-3-8-4-3-7-4" orient="auto" refX="0" refY="0" style="overflow:visible"><path id="path2550-8-5-7-4-5-7-4-8-2" style="fill:#000;fill-opacity:1;fill-rule:evenodd;stroke:#000;stroke-width:.625;stroke-linejoin:round;stroke-opacity:1" d="M 8.7185878,4.0337352 -2.2072895,0.01601326 8.7185884,-4.0017078 c -1.7454984,2.3720609 -1.7354408,5.6174519 -6e-7,8.035443 z" transform="matrix(-0.3,0,0,-0.3,0.69,0)"/></marker><marker id="Arrow2Send-4-9-4-3-8-4-3-0-2" orient="auto" refX="0" refY="0" style="overflow:visible"><path id="path2550-8-5-7-4-5-7-4-6-6" style="fill:#000;fill-opacity:1;fill-rule:evenodd;stroke:#000;stroke-width:.625;stroke-linejoin:round;stroke-opacity:1" d="M 8.7185878,4.0337352 -2.2072895,0.01601326 8.7185884,-4.0017078 c -1.7454984,2.3720609 -1.7354408,5.6174519 -6e-7,8.035443 z" transform="matrix(-0.3,0,0,-0.3,0.69,0)"/></marker><marker id="Arrow2Send-4-9-1-2" orient="auto" refX="0" refY="0" style="overflow:visible"><path id="path2550-8-5-5-4" style="fill:#000;fill-opacity:1;fill-rule:evenodd;stroke:#000;stroke-width:.625;stroke-linejoin:round;stroke-opacity:1" d="M 8.7185878,4.0337352 -2.2072895,0.01601326 8.7185884,-4.0017078 c -1.7454984,2.3720609 -1.7354408,5.6174519 -6e-7,8.035443 z" transform="matrix(-0.3,0,0,-0.3,0.69,0)"/></marker><marker id="Arrow2Send-4-9-4-3-8-4-3-02" orient="auto" refX="0" refY="0" style="overflow:visible"><path id="path2550-8-5-7-4-5-7-4-80" style="fill:#000;fill-opacity:1;fill-rule:evenodd;stroke:#000;stroke-width:.625;stroke-linejoin:round;stroke-opacity:1" d="M 8.7185878,4.0337352 -2.2072895,0.01601326 8.7185884,-4.0017078 c -1.7454984,2.3720609 -1.7354408,5.6174519 -6e-7,8.035443 z" transform="matrix(-0.3,0,0,-0.3,0.69,0)"/></marker><marker id="Arrow2Send-4-9-9" orient="auto" refX="0" refY="0" style="overflow:visible"><path id="path2550-8-5-4" style="fill:#000;fill-opacity:1;fill-rule:evenodd;stroke:#000;stroke-width:.625;stroke-linejoin:round;stroke-opacity:1" d="M 8.7185878,4.0337352 -2.2072895,0.01601326 8.7185884,-4.0017078 c -1.7454984,2.3720609 -1.7354408,5.6174519 -6e-7,8.035443 z" transform="matrix(-0.3,0,0,-0.3,0.69,0)"/></marker><marker id="Arrow2Send-4-9-9-9" orient="auto" refX="0" refY="0" style="overflow:visible"><path id="path2550-8-5-4-1" style="fill:#000;fill-opacity:1;fill-rule:evenodd;stroke:#000;stroke-width:.625;stroke-linejoin:round;stroke-opacity:1" d="M 8.7185878,4.0337352 -2.2072895,0.01601326 8.7185884,-4.0017078 c -1.7454984,2.3720609 -1.7354408,5.6174519 -6e-7,8.035443 z" transform="matrix(-0.3,0,0,-0.3,0.69,0)"/></marker><marker id="Arrow2Send-4-9-9-4" orient="auto" refX="0" refY="0" style="overflow:visible"><path id="path2550-8-5-4-6" style="fill:#000;fill-opacity:1;fill-rule:evenodd;stroke:#000;stroke-width:.625;stroke-linejoin:round;stroke-opacity:1" d="M 8.7185878,4.0337352 -2.2072895,0.01601326 8.7185884,-4.0017078 c -1.7454984,2.3720609 -1.7354408,5.6174519 -6e-7,8.035443 z" transform="matrix(-0.3,0,0,-0.3,0.69,0)"/></marker><marker id="Arrow2Send-4-9-4-3-8-4-3-02-5" orient="auto" refX="0" refY="0" style="overflow:visible"><path id="path2550-8-5-7-4-5-7-4-80-6" style="fill:#000;fill-opacity:1;fill-rule:evenodd;stroke:#000;stroke-width:.625;stroke-linejoin:round;stroke-opacity:1" d="M 8.7185878,4.0337352 -2.2072895,0.01601326 8.7185884,-4.0017078 c -1.7454984,2.3720609 -1.7354408,5.6174519 -6e-7,8.035443 z" transform="matrix(-0.3,0,0,-0.3,0.69,0)"/></marker><marker id="Arrow2Send-4-9-4-3-8-4-3-02-5-5" orient="auto" refX="0" refY="0" style="overflow:visible"><path id="path2550-8-5-7-4-5-7-4-80-6-8" style="fill:#000;fill-opacity:1;fill-rule:evenodd;stroke:#000;stroke-width:.625;stroke-linejoin:round;stroke-opacity:1" d="M 8.7185878,4.0337352 -2.2072895,0.01601326 8.7185884,-4.0017078 c -1.7454984,2.3720609 -1.7354408,5.6174519 -6e-7,8.035443 z" transform="matrix(-0.3,0,0,-0.3,0.69,0)"/></marker><marker id="Arrow2Send-4-9-4-3-8-4-3-7-4-3" orient="auto" refX="0" refY="0" style="overflow:visible"><path id="path2550-8-5-7-4-5-7-4-8-2-4" style="fill:#000;fill-opacity:1;fill-rule:evenodd;stroke:#000;stroke-width:.625;stroke-linejoin:round;stroke-opacity:1" d="M 8.7185878,4.0337352 -2.2072895,0.01601326 8.7185884,-4.0017078 c -1.7454984,2.3720609 -1.7354408,5.6174519 -6e-7,8.035443 z" transform="matrix(-0.3,0,0,-0.3,0.69,0)"/></marker><marker id="Arrow2Send-4-9-4-3-8-4-3-7-4-3-0" orient="auto" refX="0" refY="0" style="overflow:visible"><path id="path2550-8-5-7-4-5-7-4-8-2-4-6" style="fill:#000;fill-opacity:1;fill-rule:evenodd;stroke:#000;stroke-width:.625;stroke-linejoin:round;stroke-opacity:1" d="M 8.7185878,4.0337352 -2.2072895,0.01601326 8.7185884,-4.0017078 c -1.7454984,2.3720609 -1.7354408,5.6174519 -6e-7,8.035443 z" transform="matrix(-0.3,0,0,-0.3,0.69,0)"/></marker><marker id="Arrow2Send-4-9-2-7-5-4" orient="auto" refX="0" refY="0" style="overflow:visible"><path id="path2550-8-5-2-2-0-5" style="fill:#000;fill-opacity:1;fill-rule:evenodd;stroke:#000;stroke-width:.625;stroke-linejoin:round;stroke-opacity:1" d="M 8.7185878,4.0337352 -2.2072895,0.01601326 8.7185884,-4.0017078 c -1.7454984,2.3720609 -1.7354408,5.6174519 -6e-7,8.035443 z" transform="matrix(-0.3,0,0,-0.3,0.69,0)"/></marker><marker id="Arrow2Send-4-9-1-2-7" orient="auto" refX="0" refY="0" style="overflow:visible"><path id="path2550-8-5-5-4-4" style="fill:#000;fill-opacity:1;fill-rule:evenodd;stroke:#000;stroke-width:.625;stroke-linejoin:round;stroke-opacity:1" d="M 8.7185878,4.0337352 -2.2072895,0.01601326 8.7185884,-4.0017078 c -1.7454984,2.3720609 -1.7354408,5.6174519 -6e-7,8.035443 z" transform="matrix(-0.3,0,0,-0.3,0.69,0)"/></marker><marker id="Arrow2Send-4-9-4-3-8-4-3-7-4-1" orient="auto" refX="0" refY="0" style="overflow:visible"><path id="path2550-8-5-7-4-5-7-4-8-2-0" style="fill:#000;fill-opacity:1;fill-rule:evenodd;stroke:#000;stroke-width:.625;stroke-linejoin:round;stroke-opacity:1" d="M 8.7185878,4.0337352 -2.2072895,0.01601326 8.7185884,-4.0017078 c -1.7454984,2.3720609 -1.7354408,5.6174519 -6e-7,8.035443 z" transform="matrix(-0.3,0,0,-0.3,0.69,0)"/></marker></defs><metadata id="metadata5"/><path id="path3009-9" d="M 41.73137,35.166797 Z" style="fill:none;stroke:#000;stroke-width:.26458332px;stroke-linecap:butt;stroke-linejoin:miter;stroke-opacity:1"/><flowRoot transform="matrix(0.26458338,0,0,0.26458338,-56.884983,-43.587386)" style="font-style:normal;font-weight:400;font-size:40px;line-height:1.25;font-family:sans-serif;letter-spacing:0;word-spacing:0;fill:#000;fill-opacity:1;stroke:none" id="flowRoot3421-8" xml:space="preserve"><flowRegion id="flowRegion3423-4"><rect id="rect3425-5" width="191.929" height="89.146" x="250.897" y="235.858"/></flowRegion><flowPara id="flowPara3427-8"/></flowRoot><path id="path2507-1-1-60" d="m 8.7337,34.772921 8.5203,0.01905" style="fill:none;stroke:#000;stroke-width:1.10596967;stroke-linecap:butt;stroke-linejoin:miter;stroke-miterlimit:4;stroke-dasharray:none;stroke-opacity:1;marker-end:url(#Arrow2Send-4-9-2)"/><text id="text10323-0" x="-.014" y="31.692" style="font-style:normal;font-weight:400;font-size:10.58333302px;line-height:1.25;font-family:sans-serif;letter-spacing:0;word-spacing:0;fill:#000;fill-opacity:1;stroke:none;stroke-width:.26458332" xml:space="preserve"><tspan style="font-style:italic;font-size:4.23333311px;line-height:2.25;stroke-width:.26458332" id="tspan10321-66" x="-.014" y="31.692">IV = CV<tspan id="tspan11010-2" style="font-size:2.75166631px;baseline-shift:sub;stroke-width:.26458332">0</tspan></tspan></text><text id="text10323-2-9" x="84.596" y="31.522" style="font-style:normal;font-weight:400;font-size:10.58333302px;line-height:1.25;font-family:sans-serif;letter-spacing:0;word-spacing:0;fill:#000;fill-opacity:1;stroke:none;stroke-width:.26458332" xml:space="preserve"><tspan style="font-style:italic;font-size:4.23333311px;line-height:2.25;stroke-width:.26458332" id="tspan10321-6-2" x="84.596" y="31.522">CV<tspan style="font-size:64.99999762%;baseline-shift:sub" id="tspan1249">n</tspan></tspan></text><text id="text10323-6-3" x="137.345" y="36.779" style="font-style:normal;font-weight:400;font-size:10.58333302px;line-height:1.25;font-family:sans-serif;letter-spacing:0;word-spacing:0;fill:#000;fill-opacity:1;stroke:none;stroke-width:.26458332" xml:space="preserve"><tspan style="font-style:italic;font-size:4.23333311px;line-height:2.25;stroke-width:.26458332" id="tspan10321-7-3" x="137.345" y="36.779">h(x)</tspan></text><path id="rect2466-38-0-2-2" d="m 19.592418,23.863441 24.091804,5.466973 0.106148,9.375071 -24.197937,5.20033 z" style="opacity:.32300002;fill:#000;fill-opacity:1;fill-rule:nonzero;stroke:#000;stroke-width:.28289017;stroke-linejoin:round;stroke-miterlimit:4;stroke-dasharray:none;stroke-dashoffset:0;stroke-opacity:1;paint-order:normal"/><text id="text2487-65-7-9-9-3-8-7-6" x="32.736" y="32.824" transform="scale(0.92229474,1.0842521)" style="font-style:normal;font-weight:400;font-size:4.93888903px;line-height:1.25;font-family:sans-serif;letter-spacing:0;word-spacing:0;fill:#000;fill-opacity:1;stroke:none;stroke-width:.61680549" xml:space="preserve"><tspan style="font-style:italic;font-size:4.93888903px;line-height:3.25;stroke-width:.61680549" id="tspan2485-6-9-1-8-7-3-5-6" x="32.736" y="32.824">f</tspan></text><flowRoot transform="matrix(0.26458338,0,0,0.26458338,-6.4585771,3.6127261)" style="font-style:normal;font-weight:400;font-size:16px;line-height:1.25;font-family:sans-serif;letter-spacing:0;word-spacing:0;fill:#000;fill-opacity:1;stroke:none" id="flowRoot10659-3" xml:space="preserve"><flowRegion style="font-size:16px" id="flowRegion10661-2"><rect style="font-size:16px" id="rect10663-5" width="802.143" height="277.143" x="-105.357" y="-45.121"/></flowRegion><flowPara id="flowPara10665-0"/></flowRoot><g id="g9601-2-0-0-9-9" transform="matrix(0.8182682,0,0,0.89054608,-40.976595,-33.07937)"><path style="fill:none;stroke:#000;stroke-width:1.20052516;stroke-linecap:butt;stroke-linejoin:miter;stroke-miterlimit:4;stroke-dasharray:none;stroke-opacity:1;marker-end:url(#Arrow2Send-4-9-4-3-8-4-3-4)" id="path2507-1-1-5-6-7-8-5-03" d="m 63.420537,64.355188 7.492668,0.01974"/><path style="fill:none;stroke:#000;stroke-width:1.19051707;stroke-linecap:butt;stroke-linejoin:miter;stroke-miterlimit:4;stroke-dasharray:none;stroke-opacity:1" id="path2507-1-1-5-4-0-5-3-4-9" d="m 63.656655,55.989757 -0.162009,8.953531"/></g><path id="path2507-1-1-82-2-2" d="m 123.24313,35.060324 9.5501,0.10725" style="fill:none;stroke:#000;stroke-width:1.68217218;stroke-linecap:butt;stroke-linejoin:miter;stroke-miterlimit:4;stroke-dasharray:none;stroke-opacity:1;marker-end:url(#Arrow2Send-4-9-2-7-5)"/><text id="text10323-9-3" x="9.511" y="15.118" style="font-style:normal;font-weight:400;font-size:10.58333302px;line-height:1.25;font-family:sans-serif;letter-spacing:0;word-spacing:0;fill:#000;fill-opacity:1;stroke:none;stroke-width:.26458332" xml:space="preserve"><tspan style="font-style:italic;font-size:4.23333311px;line-height:2.25;stroke-width:.26458332" id="tspan10321-9-56" x="9.511" y="15.118"><tspan id="tspan11795-6" style="font-size:4.93888903px;stroke-width:.26458332">x</tspan><tspan style="font-size:2.75166631px;baseline-shift:sub;stroke-width:.26458332" id="tspan956">0</tspan></tspan></text><text id="text10323-9-4-0" x="87.827" y="15.533" style="font-style:normal;font-weight:400;font-size:10.58333302px;line-height:1.25;font-family:sans-serif;letter-spacing:0;word-spacing:0;fill:#000;fill-opacity:1;stroke:none;stroke-width:.26458332" xml:space="preserve"><tspan style="font-style:italic;font-size:4.23333311px;line-height:2.25;stroke-width:.26458332" id="tspan10321-9-5-4" x="87.827" y="15.533">X<tspan style="font-size:64.99999762%;baseline-shift:sub" id="tspan1247">n</tspan></tspan></text><g id="g9601-2-0-0-9-0-3" transform="matrix(0.81826817,0,0,0.89054608,36.773129,-33.173863)"><path style="fill:none;stroke:#000;stroke-width:1.20052516;stroke-linecap:butt;stroke-linejoin:miter;stroke-miterlimit:4;stroke-dasharray:none;stroke-opacity:1;marker-end:url(#Arrow2Send-4-9-4-3-8-4-3-7-4)" id="path2507-1-1-5-6-7-8-5-0-6" d="m 63.420537,64.355188 7.492668,0.01974"/><path style="fill:none;stroke:#000;stroke-width:1.19051707;stroke-linecap:butt;stroke-linejoin:miter;stroke-miterlimit:4;stroke-dasharray:none;stroke-opacity:1" id="path2507-1-1-5-4-0-5-3-4-0-8" d="m 63.656655,55.989757 -0.162009,8.953531"/></g><path id="path2507-1-1-7-8" d="m 86.218852,34.735125 8.520299,0.01905" style="fill:none;stroke:#000;stroke-width:1.10596967;stroke-linecap:butt;stroke-linejoin:miter;stroke-miterlimit:4;stroke-dasharray:none;stroke-opacity:1;marker-end:url(#Arrow2Send-4-9-1-2)"/><path id="rect2466-38-0-2-9" d="m 97.088008,23.766249 24.091922,5.466973 0.10615,9.37507 -24.198056,5.200328 z" style="opacity:.32300002;fill:#000;fill-opacity:1;fill-rule:nonzero;stroke:#000;stroke-width:.28289017;stroke-linejoin:round;stroke-miterlimit:4;stroke-dasharray:none;stroke-dashoffset:0;stroke-opacity:1;paint-order:normal"/><text id="text2487-65-7-9-9-3-8-7-0" x="116.761" y="32.734" transform="scale(0.92229474,1.0842521)" style="font-style:normal;font-weight:400;font-size:4.9388895px;line-height:1.25;font-family:sans-serif;letter-spacing:0;word-spacing:0;fill:#000;fill-opacity:1;stroke:none;stroke-width:.61680549" xml:space="preserve"><tspan style="font-style:italic;font-size:4.9388895px;line-height:3.25;stroke-width:.61680549" id="tspan2485-6-9-1-8-7-3-5-9" x="116.761" y="32.734">f</tspan></text><text id="text10323-9-4-0-1" x="141.589" y="3.752" style="font-style:normal;font-weight:400;font-size:10.58333302px;line-height:1.25;font-family:sans-serif;letter-spacing:0;word-spacing:0;fill:#000;fill-opacity:1;stroke:none;stroke-width:.26458332" xml:space="preserve"><tspan style="font-style:italic;font-size:4.23333311px;line-height:2.25;stroke-width:.26458332" id="tspan10321-9-5-4-0" x="141.589" y="3.752"><tspan id="tspan11797-9-9" style="font-size:4.93888903px;stroke-width:.26458332">x&apos;</tspan><tspan style="font-size:2.75166631px;baseline-shift:sub;stroke-width:.26458332" id="tspan960-1">n+1</tspan></tspan></text><g id="g9601-2-0-0-9-0-3-2" transform="matrix(0.81826817,0,0,0.89054608,90.535435,-44.954801)"><path style="fill:none;stroke:#000;stroke-width:1.20052516;stroke-linecap:butt;stroke-linejoin:miter;stroke-miterlimit:4;stroke-dasharray:none;stroke-opacity:1;marker-end:url(#Arrow2Send-4-9-4-3-8-4-3-7-4-3)" id="path2507-1-1-5-6-7-8-5-0-6-5" d="m 63.420537,64.355188 7.492668,0.01974"/><path style="fill:none;stroke:#000;stroke-width:1.19051707;stroke-linecap:butt;stroke-linejoin:miter;stroke-miterlimit:4;stroke-dasharray:none;stroke-opacity:1" id="path2507-1-1-5-4-0-5-3-4-0-8-3" d="m 63.656655,55.989757 -0.162009,8.953531"/></g><path id="rect2466-38-0-2-9-2" d="m 150.85052,11.985311 24.09181,5.466973 0.10614,9.37507 -24.19793,5.200328 z" style="opacity:.10899999;fill:#000;fill-opacity:1;fill-rule:nonzero;stroke:#000;stroke-width:.28289017;stroke-linejoin:round;stroke-miterlimit:4;stroke-dasharray:none;stroke-dashoffset:0;stroke-opacity:1;paint-order:normal"/><g id="g9601-2-0-0-9-0-3-2-6" transform="matrix(0.81826817,0,0,-0.89054608,89.1368,81.606903)"><path style="fill:none;stroke:#000;stroke-width:1.20052516;stroke-linecap:butt;stroke-linejoin:miter;stroke-miterlimit:4;stroke-dasharray:none;stroke-opacity:1;marker-end:url(#Arrow2Send-4-9-4-3-8-4-3-7-4-3-0)" id="path2507-1-1-5-6-7-8-5-0-6-5-3" d="m 63.420537,64.355188 7.492668,0.01974"/><path style="fill:none;stroke:#000;stroke-width:1.19051707;stroke-linecap:butt;stroke-linejoin:miter;stroke-miterlimit:4;stroke-dasharray:none;stroke-opacity:1" id="path2507-1-1-5-4-0-5-3-4-0-8-3-7" d="m 63.656655,55.989757 -0.162009,8.953531"/></g><text id="text2487-65-7-9-9-3-8-7-0-9-3" x="175.108" y="22.352" transform="scale(0.92229474,1.0842521)" style="font-style:normal;font-weight:400;font-size:4.9388895px;line-height:1.25;font-family:sans-serif;letter-spacing:0;word-spacing:0;fill:#000;fill-opacity:1;stroke:none;stroke-width:.61680549" xml:space="preserve"><tspan style="font-style:italic;font-size:4.9388895px;line-height:3.25;stroke-width:.61680549" id="tspan2485-6-9-1-8-7-3-5-9-8-8" x="175.108" y="22.352">f</tspan></text><text id="text10323-6-3-4" x="189.417" y="23.558" style="font-style:normal;font-weight:400;font-size:10.58333302px;line-height:1.25;font-family:sans-serif;letter-spacing:0;word-spacing:0;fill:#000;fill-opacity:1;stroke:none;stroke-width:.26458332" xml:space="preserve"><tspan style="font-style:italic;font-size:4.23333311px;line-height:2.25;stroke-width:.26458332" id="tspan10321-7-3-7" x="189.417" y="23.558">h(x&apos;)</tspan></text><path id="path2507-1-1-82-2-2-5" d="m 176.44955,22.018219 9.55004,0.10725" style="fill:none;stroke:#000;stroke-width:1.68217206;stroke-linecap:butt;stroke-linejoin:miter;stroke-miterlimit:4;stroke-dasharray:none;stroke-opacity:1;marker-end:url(#Arrow2Send-4-9-2-7-5-4)"/><text id="text10323-9-4-5-5-0-4" x="139.165" y="21.14" style="font-style:normal;font-weight:400;font-size:10.58333302px;line-height:1.25;font-family:sans-serif;letter-spacing:0;word-spacing:0;fill:#000;fill-opacity:1;stroke:none;stroke-width:.26458332" xml:space="preserve"><tspan style="font-style:italic;font-size:4.23333311px;line-height:2.25;stroke-width:.26458332" id="tspan10321-9-5-7-0-8-2" x="139.165" y="21.14">CV<tspan id="tspan10985-8-2-4" style="font-size:2.75166631px;baseline-shift:sub;stroke-width:.26458332">n+1</tspan></tspan></text><text id="text10323-2-9-4" x="46.299" y="31.599" style="font-style:normal;font-weight:400;font-size:10.58333302px;line-height:1.25;font-family:sans-serif;letter-spacing:0;word-spacing:0;fill:#000;fill-opacity:1;stroke:none;stroke-width:.26458332" xml:space="preserve"><tspan style="font-style:italic;font-size:4.23333311px;line-height:2.25;stroke-width:.26458332" id="tspan10321-6-2-5" x="46.299" y="31.599">CV<tspan style="font-size:2.75166607px;baseline-shift:sub;stroke-width:.26458332" id="tspan1249-1">n-1</tspan></tspan></text><text id="text10323-9-4-0-8" x="49.531" y="15.611" style="font-style:normal;font-weight:400;font-size:10.58333302px;line-height:1.25;font-family:sans-serif;letter-spacing:0;word-spacing:0;fill:#000;fill-opacity:1;stroke:none;stroke-width:.26458332" xml:space="preserve"><tspan style="font-style:italic;font-size:4.23333311px;line-height:2.25;stroke-width:.26458332" id="tspan10321-9-5-4-3" x="49.531" y="15.611">X<tspan style="font-size:2.75166607px;baseline-shift:sub;stroke-width:.26458332" id="tspan1247-2">1</tspan></tspan></text><g id="g9601-2-0-0-9-0-3-3" transform="matrix(0.81826818,0,0,0.89054608,-1.5232045,-33.096639)"><path style="fill:none;stroke:#000;stroke-width:1.20052516;stroke-linecap:butt;stroke-linejoin:miter;stroke-miterlimit:4;stroke-dasharray:none;stroke-opacity:1;marker-end:url(#Arrow2Send-4-9-4-3-8-4-3-7-4-1)" id="path2507-1-1-5-6-7-8-5-0-6-2" d="m 63.420537,64.355188 7.492668,0.01974"/><path style="fill:none;stroke:#000;stroke-width:1.19051707;stroke-linecap:butt;stroke-linejoin:miter;stroke-miterlimit:4;stroke-dasharray:none;stroke-opacity:1" id="path2507-1-1-5-4-0-5-3-4-0-8-1" d="m 63.656655,55.989757 -0.162009,8.953531"/></g><path id="path2507-1-1-7-8-6" d="m 47.922507,34.812351 8.520304,0.01905" style="fill:none;stroke:#000;stroke-width:1.10596967;stroke-linecap:butt;stroke-linejoin:miter;stroke-miterlimit:4;stroke-dasharray:none;stroke-opacity:1;marker-end:url(#Arrow2Send-4-9-1-2-7)"/><path id="rect2466-38-0-2-9-5" d="m 58.791669,23.843473 24.091807,5.466975 0.106148,9.37507 -24.197939,5.200327 z" style="opacity:.32300002;fill:#000;fill-opacity:1;fill-rule:nonzero;stroke:#000;stroke-width:.28289017;stroke-linejoin:round;stroke-miterlimit:4;stroke-dasharray:none;stroke-dashoffset:0;stroke-opacity:1;paint-order:normal"/><text id="text2487-65-7-9-9-3-8-7-0-9" x="75.238" y="32.805" transform="scale(0.92229474,1.0842521)" style="font-style:normal;font-weight:400;font-size:4.9388895px;line-height:1.25;font-family:sans-serif;letter-spacing:0;word-spacing:0;fill:#000;fill-opacity:1;stroke:none;stroke-width:.61680549" xml:space="preserve"><tspan style="font-style:italic;font-size:4.9388895px;line-height:3.25;stroke-width:.61680549" id="tspan2485-6-9-1-8-7-3-5-9-2" x="75.238" y="32.805">f</tspan></text></svg>