<svg xmlns="http://www.w3.org/2000/svg" xmlns:osb="http://www.openswatchbook.org/uri/2009/osb" xmlns:svg="http://www.w3.org/2000/svg" id="svg8" width="226.112" height="94.987" version="1.1" viewBox="0 0 59.825 25.132"><defs id="defs2"><marker style="overflow:visible" id="marker3079" orient="auto" refX="0" refY="0"><path id="path3077" d="M 8.7185878,4.0337352 -2.2072895,0.01601326 8.7185884,-4.0017078 c -1.7454984,2.3720609 -1.7354408,5.6174519 -6e-7,8.035443 z" transform="matrix(-0.3,0,0,-0.3,0.69,0)" style="fill:#170000;fill-opacity:1;fill-rule:evenodd;stroke:#170000;stroke-width:.625;stroke-linejoin:round;stroke-opacity:1"/></marker><marker style="overflow:visible" id="marker3021" orient="auto" refX="0" refY="0"><path id="path3019" d="M 8.7185878,4.0337352 -2.2072895,0.01601326 8.7185884,-4.0017078 c -1.7454984,2.3720609 -1.7354408,5.6174519 -6e-7,8.035443 z" transform="matrix(-0.3,0,0,-0.3,0.69,0)" style="fill:#170000;fill-opacity:1;fill-rule:evenodd;stroke:#170000;stroke-width:.625;stroke-linejoin:round;stroke-opacity:1"/></marker><marker id="Arrow2Send" orient="auto" refX="0" refY="0" style="overflow:visible"><path id="path2550" style="fill:#000;fill-opacity:1;fill-rule:evenodd;stroke:#000;stroke-width:.625;stroke-linejoin:round;stroke-opacity:1" d="M 8.7185878,4.0337352 -2.2072895,0.01601326 8.7185884,-4.0017078 c -1.7454984,2.3720609 -1.7354408,5.6174519 -6e-7,8.035443 z" transform="matrix(-0.3,0,0,-0.3,0.69,0)"/></marker><marker id="Arrow2Sstart" orient="auto" refX="0" refY="0" style="overflow:visible"><path id="path2547" style="fill:#170000;fill-opacity:1;fill-rule:evenodd;stroke:#170000;stroke-width:.625;stroke-linejoin:round;stroke-opacity:1" d="M 8.7185878,4.0337352 -2.2072895,0.01601326 8.7185884,-4.0017078 c -1.7454984,2.3720609 -1.7354408,5.6174519 -6e-7,8.035443 z" transform="matrix(0.3,0,0,0.3,-0.69,0)"/></marker><marker id="marker2833" orient="auto" refX="0" refY="0" style="overflow:visible"><path id="path2831" d="M 0,0 5,-5 -12.5,0 5,5 Z" style="fill:#000;fill-opacity:1;fill-rule:evenodd;stroke:#000;stroke-width:1.00000003pt;stroke-opacity:1" transform="matrix(0.8,0,0,0.8,10,0)"/></marker><marker id="Arrow1Lend" orient="auto" refX="0" refY="0" style="overflow:visible"><path id="path2520" d="M 0,0 5,-5 -12.5,0 5,5 Z" style="fill:#000;fill-opacity:1;fill-rule:evenodd;stroke:#000;stroke-width:1.00000003pt;stroke-opacity:1" transform="matrix(-0.8,0,0,-0.8,-10,0)"/></marker><marker id="Arrow1Lstart" orient="auto" refX="0" refY="0" style="overflow:visible"><path id="path2517" d="M 0,0 5,-5 -12.5,0 5,5 Z" style="fill:#000;fill-opacity:1;fill-rule:evenodd;stroke:#000;stroke-width:1.00000003pt;stroke-opacity:1" transform="matrix(0.8,0,0,0.8,10,0)"/></marker><linearGradient id="linearGradient2316" osb:paint="solid"><stop style="stop-color:#000;stop-opacity:1" id="stop2314" offset="0"/></linearGradient><linearGradient id="linearGradient843" osb:paint="solid"><stop style="stop-color:#000;stop-opacity:1" id="stop841" offset="0"/></linearGradient><linearGradient id="linearGradient825" osb:paint="gradient"><stop style="stop-color:#000;stop-opacity:1" id="stop821" offset="0"/><stop style="stop-color:#bd3b3b;stop-opacity:0" id="stop823" offset="1"/></linearGradient><marker id="Arrow2Send-4" orient="auto" refX="0" refY="0" style="overflow:visible"><path id="path2550-8" style="fill:#000;fill-opacity:1;fill-rule:evenodd;stroke:#000;stroke-width:.625;stroke-linejoin:round;stroke-opacity:1" d="M 8.7185878,4.0337352 -2.2072895,0.01601326 8.7185884,-4.0017078 c -1.7454984,2.3720609 -1.7354408,5.6174519 -6e-7,8.035443 z" transform="matrix(-0.3,0,0,-0.3,0.69,0)"/></marker><marker id="Arrow2Sstart-1" orient="auto" refX="0" refY="0" style="overflow:visible"><path id="path2547-3" style="fill:#170000;fill-opacity:1;fill-rule:evenodd;stroke:#170000;stroke-width:.625;stroke-linejoin:round;stroke-opacity:1" d="M 8.7185878,4.0337352 -2.2072895,0.01601326 8.7185884,-4.0017078 c -1.7454984,2.3720609 -1.7354408,5.6174519 -6e-7,8.035443 z" transform="matrix(0.3,0,0,0.3,-0.69,0)"/></marker><marker id="Arrow2Sstart-1-5" orient="auto" refX="0" refY="0" style="overflow:visible"><path id="path2547-3-5" style="fill:#170000;fill-opacity:1;fill-rule:evenodd;stroke:#170000;stroke-width:.625;stroke-linejoin:round;stroke-opacity:1" d="M 8.7185878,4.0337352 -2.2072895,0.01601326 8.7185884,-4.0017078 c -1.7454984,2.3720609 -1.7354408,5.6174519 -6e-7,8.035443 z" transform="matrix(0.3,0,0,0.3,-0.69,0)"/></marker><marker id="Arrow2Send-5" orient="auto" refX="0" refY="0" style="overflow:visible"><path id="path2550-5" style="fill:#000;fill-opacity:1;fill-rule:evenodd;stroke:#000;stroke-width:.625;stroke-linejoin:round;stroke-opacity:1" d="M 8.7185878,4.0337352 -2.2072895,0.01601326 8.7185884,-4.0017078 c -1.7454984,2.3720609 -1.7354408,5.6174519 -6e-7,8.035443 z" transform="matrix(-0.3,0,0,-0.3,0.69,0)"/></marker></defs><metadata id="metadata5"/><g id="layer1" transform="translate(-69.443276,-63.570814)"><rect style="opacity:.32300002;fill:#000;fill-opacity:1;fill-rule:nonzero;stroke:#000;stroke-width:.11235411;stroke-linejoin:round;stroke-miterlimit:4;stroke-dasharray:none;stroke-dashoffset:0;stroke-opacity:1;paint-order:normal" id="rect2466" width="10.725" height="7.102" x="85.162" y="63.627"/><text xml:space="preserve" style="font-style:normal;font-weight:400;font-size:4.93888903px;line-height:1.25;font-family:sans-serif;letter-spacing:0;word-spacing:0;fill:#000;fill-opacity:1;stroke:none;stroke-width:.26458332" id="text2487" x="88.998" y="68.355"><tspan id="tspan2485" x="88.998" y="68.355" style="font-size:4.93888903px;line-height:2.25;stroke-width:.26458332">x</tspan></text><text xml:space="preserve" style="font-style:normal;font-weight:400;font-size:10.58333302px;line-height:1.25;font-family:sans-serif;letter-spacing:0;word-spacing:0;fill:#000;fill-opacity:1;stroke:none;stroke-width:.26458332" id="text2487-6" x="86.669" y="85.524"><tspan id="tspan2485-3" x="86.669" y="85.524" style="font-size:4.23333311px;line-height:2.25;stroke-width:.26458332">h(x)</tspan></text><path style="fill:none;stroke:#000;stroke-width:.90474761;stroke-linecap:butt;stroke-linejoin:miter;stroke-miterlimit:4;stroke-dasharray:none;stroke-opacity:1;marker-end:url(#Arrow2Send)" id="path2507" d="m 90.24383,71.98509 v 6.633095"/><path style="fill:none;stroke:#000;stroke-width:.26458332px;stroke-linecap:butt;stroke-linejoin:miter;stroke-opacity:1" id="path3009" d="M 95.970517,78.754183 Z"/><path style="fill:none;stroke:#170000;stroke-width:.75491953;stroke-linecap:butt;stroke-linejoin:miter;stroke-miterlimit:4;stroke-dasharray:.75491956,.75491956;stroke-dashoffset:0;stroke-opacity:1;marker-start:url(#Arrow2Sstart)" id="path3011" d="m 115.40314,67.71609 c 8.43978,0.598979 3.82686,10.486889 0.16821,16.568645"/><text xml:space="preserve" style="font-style:normal;font-weight:400;font-size:10.58333302px;line-height:1.25;font-family:sans-serif;letter-spacing:0;word-spacing:0;fill:#000;fill-opacity:1;stroke:none;stroke-width:.26458332" id="text2487-8" x="120.409" y="79.678"><tspan id="tspan2485-2" x="120.409" y="79.678" style="font-weight:700;font-size:4.23333311px;line-height:2.25;stroke-width:.26458332">find</tspan></text><text xml:space="preserve" style="font-style:normal;font-weight:400;font-size:10.58333302px;line-height:1.25;font-family:sans-serif;letter-spacing:0;word-spacing:0;fill:#000;fill-opacity:1;stroke:none;stroke-width:.26458332" id="text2487-8-6" x="71.469" y="68.345"><tspan id="tspan2485-2-0" x="71.469" y="68.345" style="font-weight:700;font-size:4.23333311px;line-height:2.25;stroke-width:.26458332">Given</tspan></text><flowRoot id="flowRoot3421" transform="scale(0.26458333)" xml:space="preserve" style="font-style:normal;font-weight:400;font-size:40px;line-height:1.25;font-family:sans-serif;letter-spacing:0;word-spacing:0;fill:#000;fill-opacity:1;stroke:none"><flowRegion id="flowRegion3423"><rect id="rect3425" width="191.929" height="89.146" x="250.897" y="235.858"/></flowRegion><flowPara id="flowPara3427"/></flowRoot><rect style="opacity:1;fill:none;fill-opacity:1;fill-rule:nonzero;stroke:#000;stroke-width:.11440764;stroke-linejoin:round;stroke-miterlimit:4;stroke-dasharray:none;stroke-dashoffset:0;stroke-opacity:1;paint-order:normal" id="rect2466-1" width="11.124" height="7.1" x="85.399" y="80.897"/><rect style="opacity:.32300002;fill:#000;fill-opacity:1;fill-rule:nonzero;stroke:#000;stroke-width:.11235411;stroke-linejoin:round;stroke-miterlimit:4;stroke-dasharray:none;stroke-dashoffset:0;stroke-opacity:1;paint-order:normal" id="rect2466-5" width="10.725" height="7.102" x="102.999" y="63.707"/><text xml:space="preserve" style="font-style:normal;font-weight:400;font-size:4.93888903px;line-height:1.25;font-family:sans-serif;letter-spacing:0;word-spacing:0;fill:#000;fill-opacity:1;stroke:none;stroke-width:.26458332" id="text2487-65" x="107.069" y="68.569"><tspan id="tspan2485-6" x="107.069" y="68.569" style="font-size:4.93888903px;line-height:2.25;stroke-width:.26458332">x&apos;</tspan></text><path style="fill:none;stroke:#000;stroke-width:.92526269;stroke-linecap:butt;stroke-linejoin:miter;stroke-miterlimit:4;stroke-dasharray:none;stroke-opacity:1;marker-end:url(#Arrow2Send-4)" id="path2507-1" d="M 109.17514,71.783125 V 78.72044"/><text xml:space="preserve" style="font-style:normal;font-weight:400;font-size:6.3499999px;line-height:1.25;font-family:sans-serif;letter-spacing:0;word-spacing:0;fill:#000;fill-opacity:1;stroke:none;stroke-width:.26458332" id="text9808" x="97.136" y="87.207"><tspan id="tspan9806" x="97.136" y="87.207" style="font-size:6.3499999px;stroke-width:.26458332">=</tspan></text><path style="fill:none;stroke:#170000;stroke-width:.68393832;stroke-linecap:butt;stroke-linejoin:miter;stroke-miterlimit:4;stroke-dasharray:.68393834,.68393834;stroke-dashoffset:0;stroke-opacity:1;marker-start:url(#Arrow2Sstart-1)" id="path3011-6" d="m 106.34634,80.104864 c -4.54425,-4.659347 -9.233202,-5.290325 -13.4947,0.321655"/><path style="fill:none;stroke:#000;stroke-width:.83836275;stroke-linecap:butt;stroke-linejoin:miter;stroke-miterlimit:4;stroke-dasharray:.83836277,.83836277;stroke-dashoffset:0;stroke-opacity:1;marker-end:url(#Arrow2Send-5)" id="path2507-7" d="m 82.017118,70.197088 v 9.349885"/><text xml:space="preserve" style="font-style:normal;font-weight:400;font-size:10.58333302px;line-height:1.25;font-family:sans-serif;letter-spacing:0;word-spacing:0;fill:#000;fill-opacity:1;stroke:none;stroke-width:.26458332" id="text2487-6-3" x="104.332" y="85.644"><tspan id="tspan2485-3-7" x="104.332" y="85.644" style="font-size:4.23333311px;line-height:2.25;stroke-width:.26458332">h(x&apos;)</tspan></text><rect style="opacity:1;fill:none;fill-opacity:1;fill-rule:nonzero;stroke:#000;stroke-width:.11575606;stroke-linejoin:round;stroke-miterlimit:4;stroke-dasharray:none;stroke-dashoffset:0;stroke-opacity:1;paint-order:normal" id="rect2466-1-7" width="11.39" height="7.098" x="103.062" y="81.017"/></g></svg>