<svg xmlns="http://www.w3.org/2000/svg" xmlns:osb="http://www.openswatchbook.org/uri/2009/osb" xmlns:svg="http://www.w3.org/2000/svg" id="svg8" width="764.833" height="366.55" version="1.1" viewBox="0 0 202.362 96.983"><defs id="defs2"><marker style="overflow:visible" id="marker3079" orient="auto" refX="0" refY="0"><path id="path3077" d="M 8.7185878,4.0337352 -2.2072895,0.01601326 8.7185884,-4.0017078 c -1.7454984,2.3720609 -1.7354408,5.6174519 -6e-7,8.035443 z" transform="matrix(-0.3,0,0,-0.3,0.69,0)" style="fill:#170000;fill-opacity:1;fill-rule:evenodd;stroke:#170000;stroke-width:.625;stroke-linejoin:round;stroke-opacity:1"/></marker><marker style="overflow:visible" id="marker3021" orient="auto" refX="0" refY="0"><path id="path3019" d="M 8.7185878,4.0337352 -2.2072895,0.01601326 8.7185884,-4.0017078 c -1.7454984,2.3720609 -1.7354408,5.6174519 -6e-7,8.035443 z" transform="matrix(-0.3,0,0,-0.3,0.69,0)" style="fill:#170000;fill-opacity:1;fill-rule:evenodd;stroke:#170000;stroke-width:.625;stroke-linejoin:round;stroke-opacity:1"/></marker><marker id="Arrow2Sstart" orient="auto" refX="0" refY="0" style="overflow:visible"><path id="path2547" style="fill:#170000;fill-opacity:1;fill-rule:evenodd;stroke:#170000;stroke-width:.625;stroke-linejoin:round;stroke-opacity:1" d="M 8.7185878,4.0337352 -2.2072895,0.01601326 8.7185884,-4.0017078 c -1.7454984,2.3720609 -1.7354408,5.6174519 -6e-7,8.035443 z" transform="matrix(0.3,0,0,0.3,-0.69,0)"/></marker><marker id="marker2833" orient="auto" refX="0" refY="0" style="overflow:visible"><path id="path2831" d="M 0,0 5,-5 -12.5,0 5,5 Z" style="fill:#000;fill-opacity:1;fill-rule:evenodd;stroke:#000;stroke-width:1.00000003pt;stroke-opacity:1" transform="matrix(0.8,0,0,0.8,10,0)"/></marker><marker id="Arrow1Lend" orient="auto" refX="0" refY="0" style="overflow:visible"><path id="path2520" d="M 0,0 5,-5 -12.5,0 5,5 Z" style="fill:#000;fill-opacity:1;fill-rule:evenodd;stroke:#000;stroke-width:1.00000003pt;stroke-opacity:1" transform="matrix(-0.8,0,0,-0.8,-10,0)"/></marker><marker id="Arrow1Lstart" orient="auto" refX="0" refY="0" style="overflow:visible"><path id="path2517" d="M 0,0 5,-5 -12.5,0 5,5 Z" style="fill:#000;fill-opacity:1;fill-rule:evenodd;stroke:#000;stroke-width:1.00000003pt;stroke-opacity:1" transform="matrix(0.8,0,0,0.8,10,0)"/></marker><linearGradient id="linearGradient2316" osb:paint="solid"><stop style="stop-color:#000;stop-opacity:1" id="stop2314" offset="0"/></linearGradient><linearGradient id="linearGradient825" osb:paint="gradient"><stop style="stop-color:#000;stop-opacity:1" id="stop821" offset="0"/><stop style="stop-color:#bd3b3b;stop-opacity:0" id="stop823" offset="1"/></linearGradient><marker id="Arrow2Sstart-1" orient="auto" refX="0" refY="0" style="overflow:visible"><path id="path2547-3" style="fill:#170000;fill-opacity:1;fill-rule:evenodd;stroke:#170000;stroke-width:.625;stroke-linejoin:round;stroke-opacity:1" d="M 8.7185878,4.0337352 -2.2072895,0.01601326 8.7185884,-4.0017078 c -1.7454984,2.3720609 -1.7354408,5.6174519 -6e-7,8.035443 z" transform="matrix(0.3,0,0,0.3,-0.69,0)"/></marker><marker id="Arrow2Sstart-1-5" orient="auto" refX="0" refY="0" style="overflow:visible"><path id="path2547-3-5" style="fill:#170000;fill-opacity:1;fill-rule:evenodd;stroke:#170000;stroke-width:.625;stroke-linejoin:round;stroke-opacity:1" d="M 8.7185878,4.0337352 -2.2072895,0.01601326 8.7185884,-4.0017078 c -1.7454984,2.3720609 -1.7354408,5.6174519 -6e-7,8.035443 z" transform="matrix(0.3,0,0,0.3,-0.69,0)"/></marker><marker id="Arrow2Send-4-9" orient="auto" refX="0" refY="0" style="overflow:visible"><path id="path2550-8-5" style="fill:#000;fill-opacity:1;fill-rule:evenodd;stroke:#000;stroke-width:.625;stroke-linejoin:round;stroke-opacity:1" d="M 8.7185878,4.0337352 -2.2072895,0.01601326 8.7185884,-4.0017078 c -1.7454984,2.3720609 -1.7354408,5.6174519 -6e-7,8.035443 z" transform="matrix(-0.3,0,0,-0.3,0.69,0)"/></marker><marker id="Arrow2Send-4-8" orient="auto" refX="0" refY="0" style="overflow:visible"><path id="path2550-8-6" style="fill:#000;fill-opacity:1;fill-rule:evenodd;stroke:#000;stroke-width:.625;stroke-linejoin:round;stroke-opacity:1" d="M 8.7185878,4.0337352 -2.2072895,0.01601326 8.7185884,-4.0017078 c -1.7454984,2.3720609 -1.7354408,5.6174519 -6e-7,8.035443 z" transform="matrix(-0.3,0,0,-0.3,0.69,0)"/></marker><marker id="Arrow2Send-4-9-4-3-8-4-3" orient="auto" refX="0" refY="0" style="overflow:visible"><path id="path2550-8-5-7-4-5-7-4" style="fill:#000;fill-opacity:1;fill-rule:evenodd;stroke:#000;stroke-width:.625;stroke-linejoin:round;stroke-opacity:1" d="M 8.7185878,4.0337352 -2.2072895,0.01601326 8.7185884,-4.0017078 c -1.7454984,2.3720609 -1.7354408,5.6174519 -6e-7,8.035443 z" transform="matrix(-0.3,0,0,-0.3,0.69,0)"/></marker><marker id="Arrow2Send-4-9-2-7" orient="auto" refX="0" refY="0" style="overflow:visible"><path id="path2550-8-5-2-2" style="fill:#000;fill-opacity:1;fill-rule:evenodd;stroke:#000;stroke-width:.625;stroke-linejoin:round;stroke-opacity:1" d="M 8.7185878,4.0337352 -2.2072895,0.01601326 8.7185884,-4.0017078 c -1.7454984,2.3720609 -1.7354408,5.6174519 -6e-7,8.035443 z" transform="matrix(-0.3,0,0,-0.3,0.69,0)"/></marker><marker id="Arrow2Send-4-9-4-3-8-4-3-7" orient="auto" refX="0" refY="0" style="overflow:visible"><path id="path2550-8-5-7-4-5-7-4-8" style="fill:#000;fill-opacity:1;fill-rule:evenodd;stroke:#000;stroke-width:.625;stroke-linejoin:round;stroke-opacity:1" d="M 8.7185878,4.0337352 -2.2072895,0.01601326 8.7185884,-4.0017078 c -1.7454984,2.3720609 -1.7354408,5.6174519 -6e-7,8.035443 z" transform="matrix(-0.3,0,0,-0.3,0.69,0)"/></marker><marker id="Arrow2Send-4-9-4-3-8-4-3-0" orient="auto" refX="0" refY="0" style="overflow:visible"><path id="path2550-8-5-7-4-5-7-4-6" style="fill:#000;fill-opacity:1;fill-rule:evenodd;stroke:#000;stroke-width:.625;stroke-linejoin:round;stroke-opacity:1" d="M 8.7185878,4.0337352 -2.2072895,0.01601326 8.7185884,-4.0017078 c -1.7454984,2.3720609 -1.7354408,5.6174519 -6e-7,8.035443 z" transform="matrix(-0.3,0,0,-0.3,0.69,0)"/></marker><marker id="Arrow2Send-4-9-1" orient="auto" refX="0" refY="0" style="overflow:visible"><path id="path2550-8-5-5" style="fill:#000;fill-opacity:1;fill-rule:evenodd;stroke:#000;stroke-width:.625;stroke-linejoin:round;stroke-opacity:1" d="M 8.7185878,4.0337352 -2.2072895,0.01601326 8.7185884,-4.0017078 c -1.7454984,2.3720609 -1.7354408,5.6174519 -6e-7,8.035443 z" transform="matrix(-0.3,0,0,-0.3,0.69,0)"/></marker><marker id="Arrow2Send-4-9-4-3-8-4-3-02" orient="auto" refX="0" refY="0" style="overflow:visible"><path id="path2550-8-5-7-4-5-7-4-80" style="fill:#000;fill-opacity:1;fill-rule:evenodd;stroke:#000;stroke-width:.625;stroke-linejoin:round;stroke-opacity:1" d="M 8.7185878,4.0337352 -2.2072895,0.01601326 8.7185884,-4.0017078 c -1.7454984,2.3720609 -1.7354408,5.6174519 -6e-7,8.035443 z" transform="matrix(-0.3,0,0,-0.3,0.69,0)"/></marker><marker id="Arrow2Send-4-9-9" orient="auto" refX="0" refY="0" style="overflow:visible"><path id="path2550-8-5-4" style="fill:#000;fill-opacity:1;fill-rule:evenodd;stroke:#000;stroke-width:.625;stroke-linejoin:round;stroke-opacity:1" d="M 8.7185878,4.0337352 -2.2072895,0.01601326 8.7185884,-4.0017078 c -1.7454984,2.3720609 -1.7354408,5.6174519 -6e-7,8.035443 z" transform="matrix(-0.3,0,0,-0.3,0.69,0)"/></marker><marker id="Arrow2Send-4-9-9-9" orient="auto" refX="0" refY="0" style="overflow:visible"><path id="path2550-8-5-4-1" style="fill:#000;fill-opacity:1;fill-rule:evenodd;stroke:#000;stroke-width:.625;stroke-linejoin:round;stroke-opacity:1" d="M 8.7185878,4.0337352 -2.2072895,0.01601326 8.7185884,-4.0017078 c -1.7454984,2.3720609 -1.7354408,5.6174519 -6e-7,8.035443 z" transform="matrix(-0.3,0,0,-0.3,0.69,0)"/></marker><marker id="Arrow2Send-4-9-9-4" orient="auto" refX="0" refY="0" style="overflow:visible"><path id="path2550-8-5-4-6" style="fill:#000;fill-opacity:1;fill-rule:evenodd;stroke:#000;stroke-width:.625;stroke-linejoin:round;stroke-opacity:1" d="M 8.7185878,4.0337352 -2.2072895,0.01601326 8.7185884,-4.0017078 c -1.7454984,2.3720609 -1.7354408,5.6174519 -6e-7,8.035443 z" transform="matrix(-0.3,0,0,-0.3,0.69,0)"/></marker><marker id="Arrow2Send-4-9-4-3-8-4-3-02-5" orient="auto" refX="0" refY="0" style="overflow:visible"><path id="path2550-8-5-7-4-5-7-4-80-6" style="fill:#000;fill-opacity:1;fill-rule:evenodd;stroke:#000;stroke-width:.625;stroke-linejoin:round;stroke-opacity:1" d="M 8.7185878,4.0337352 -2.2072895,0.01601326 8.7185884,-4.0017078 c -1.7454984,2.3720609 -1.7354408,5.6174519 -6e-7,8.035443 z" transform="matrix(-0.3,0,0,-0.3,0.69,0)"/></marker><marker id="Arrow2Send-4-9-4-3-8-4-3-02-5-5" orient="auto" refX="0" refY="0" style="overflow:visible"><path id="path2550-8-5-7-4-5-7-4-80-6-8" style="fill:#000;fill-opacity:1;fill-rule:evenodd;stroke:#000;stroke-width:.625;stroke-linejoin:round;stroke-opacity:1" d="M 8.7185878,4.0337352 -2.2072895,0.01601326 8.7185884,-4.0017078 c -1.7454984,2.3720609 -1.7354408,5.6174519 -6e-7,8.035443 z" transform="matrix(-0.3,0,0,-0.3,0.69,0)"/></marker><marker id="Arrow2Send-4-9-4-3-8-4-3-7-8" orient="auto" refX="0" refY="0" style="overflow:visible"><path id="path2550-8-5-7-4-5-7-4-8-5" style="fill:#000;fill-opacity:1;fill-rule:evenodd;stroke:#000;stroke-width:.625;stroke-linejoin:round;stroke-opacity:1" d="M 8.7185878,4.0337352 -2.2072895,0.01601326 8.7185884,-4.0017078 c -1.7454984,2.3720609 -1.7354408,5.6174519 -6e-7,8.035443 z" transform="matrix(-0.3,0,0,-0.3,0.69,0)"/></marker><marker id="Arrow2Send-4-9-4-3-8-4-3-02-2" orient="auto" refX="0" refY="0" style="overflow:visible"><path id="path2550-8-5-7-4-5-7-4-80-9" style="fill:#000;fill-opacity:1;fill-rule:evenodd;stroke:#000;stroke-width:.625;stroke-linejoin:round;stroke-opacity:1" d="M 8.7185878,4.0337352 -2.2072895,0.01601326 8.7185884,-4.0017078 c -1.7454984,2.3720609 -1.7354408,5.6174519 -6e-7,8.035443 z" transform="matrix(-0.3,0,0,-0.3,0.69,0)"/></marker><marker id="Arrow2Send-4-9-9-5" orient="auto" refX="0" refY="0" style="overflow:visible"><path id="path2550-8-5-4-9" style="fill:#000;fill-opacity:1;fill-rule:evenodd;stroke:#000;stroke-width:.625;stroke-linejoin:round;stroke-opacity:1" d="M 8.7185878,4.0337352 -2.2072895,0.01601326 8.7185884,-4.0017078 c -1.7454984,2.3720609 -1.7354408,5.6174519 -6e-7,8.035443 z" transform="matrix(-0.3,0,0,-0.3,0.69,0)"/></marker><marker id="Arrow2Send-4-9-9-5-1" orient="auto" refX="0" refY="0" style="overflow:visible"><path id="path2550-8-5-4-9-9" style="fill:#000;fill-opacity:1;fill-rule:evenodd;stroke:#000;stroke-width:.625;stroke-linejoin:round;stroke-opacity:1" d="M 8.7185878,4.0337352 -2.2072895,0.01601326 8.7185884,-4.0017078 c -1.7454984,2.3720609 -1.7354408,5.6174519 -6e-7,8.035443 z" transform="matrix(-0.3,0,0,-0.3,0.69,0)"/></marker><marker id="Arrow2Send-4-9-9-5-1-7" orient="auto" refX="0" refY="0" style="overflow:visible"><path id="path2550-8-5-4-9-9-8" style="fill:#000;fill-opacity:1;fill-rule:evenodd;stroke:#000;stroke-width:.625;stroke-linejoin:round;stroke-opacity:1" d="M 8.7185878,4.0337352 -2.2072895,0.01601326 8.7185884,-4.0017078 c -1.7454984,2.3720609 -1.7354408,5.6174519 -6e-7,8.035443 z" transform="matrix(-0.3,0,0,-0.3,0.69,0)"/></marker><marker id="Arrow2Send-4-9-9-5-1-4" orient="auto" refX="0" refY="0" style="overflow:visible"><path id="path2550-8-5-4-9-9-3" style="fill:#000;fill-opacity:1;fill-rule:evenodd;stroke:#000;stroke-width:.625;stroke-linejoin:round;stroke-opacity:1" d="M 8.7185878,4.0337352 -2.2072895,0.01601326 8.7185884,-4.0017078 c -1.7454984,2.3720609 -1.7354408,5.6174519 -6e-7,8.035443 z" transform="matrix(-0.3,0,0,-0.3,0.69,0)"/></marker><marker id="Arrow2Send-4-9-9-5-1-7-1" orient="auto" refX="0" refY="0" style="overflow:visible"><path id="path2550-8-5-4-9-9-8-6" style="fill:#000;fill-opacity:1;fill-rule:evenodd;stroke:#000;stroke-width:.625;stroke-linejoin:round;stroke-opacity:1" d="M 8.7185878,4.0337352 -2.2072895,0.01601326 8.7185884,-4.0017078 c -1.7454984,2.3720609 -1.7354408,5.6174519 -6e-7,8.035443 z" transform="matrix(-0.3,0,0,-0.3,0.69,0)"/></marker><marker id="Arrow2Send-4-9-9-5-1-5" orient="auto" refX="0" refY="0" style="overflow:visible"><path id="path2550-8-5-4-9-9-37" style="fill:#000;fill-opacity:1;fill-rule:evenodd;stroke:#000;stroke-width:.625;stroke-linejoin:round;stroke-opacity:1" d="M 8.7185878,4.0337352 -2.2072895,0.01601326 8.7185884,-4.0017078 c -1.7454984,2.3720609 -1.7354408,5.6174519 -6e-7,8.035443 z" transform="matrix(-0.3,0,0,-0.3,0.69,0)"/></marker><marker id="Arrow2Send-4-9-9-5-1-7-3" orient="auto" refX="0" refY="0" style="overflow:visible"><path id="path2550-8-5-4-9-9-8-4" style="fill:#000;fill-opacity:1;fill-rule:evenodd;stroke:#000;stroke-width:.625;stroke-linejoin:round;stroke-opacity:1" d="M 8.7185878,4.0337352 -2.2072895,0.01601326 8.7185884,-4.0017078 c -1.7454984,2.3720609 -1.7354408,5.6174519 -6e-7,8.035443 z" transform="matrix(-0.3,0,0,-0.3,0.69,0)"/></marker><marker id="Arrow2Send-4-9-9-5-1-7-3-9" orient="auto" refX="0" refY="0" style="overflow:visible"><path id="path2550-8-5-4-9-9-8-4-6" style="fill:#000;fill-opacity:1;fill-rule:evenodd;stroke:#000;stroke-width:.625;stroke-linejoin:round;stroke-opacity:1" d="M 8.7185878,4.0337352 -2.2072895,0.01601326 8.7185884,-4.0017078 c -1.7454984,2.3720609 -1.7354408,5.6174519 -6e-7,8.035443 z" transform="matrix(-0.3,0,0,-0.3,0.69,0)"/></marker><marker id="Arrow2Send-4-9-9-5-1-7-3-6" orient="auto" refX="0" refY="0" style="overflow:visible"><path id="path2550-8-5-4-9-9-8-4-0" style="fill:#000;fill-opacity:1;fill-rule:evenodd;stroke:#000;stroke-width:.625;stroke-linejoin:round;stroke-opacity:1" d="M 8.7185878,4.0337352 -2.2072895,0.01601326 8.7185884,-4.0017078 c -1.7454984,2.3720609 -1.7354408,5.6174519 -6e-7,8.035443 z" transform="matrix(-0.3,0,0,-0.3,0.69,0)"/></marker><marker id="Arrow2Send-4-9-9-5-1-7-3-6-3" orient="auto" refX="0" refY="0" style="overflow:visible"><path id="path2550-8-5-4-9-9-8-4-0-8" style="fill:#000;fill-opacity:1;fill-rule:evenodd;stroke:#000;stroke-width:.625;stroke-linejoin:round;stroke-opacity:1" d="M 8.7185878,4.0337352 -2.2072895,0.01601326 8.7185884,-4.0017078 c -1.7454984,2.3720609 -1.7354408,5.6174519 -6e-7,8.035443 z" transform="matrix(-0.3,0,0,-0.3,0.69,0)"/></marker><marker id="Arrow2Send-4-9-9-5-1-7-3-7" orient="auto" refX="0" refY="0" style="overflow:visible"><path id="path2550-8-5-4-9-9-8-4-07" style="fill:#000;fill-opacity:1;fill-rule:evenodd;stroke:#000;stroke-width:.625;stroke-linejoin:round;stroke-opacity:1" d="M 8.7185878,4.0337352 -2.2072895,0.01601326 8.7185884,-4.0017078 c -1.7454984,2.3720609 -1.7354408,5.6174519 -6e-7,8.035443 z" transform="matrix(-0.3,0,0,-0.3,0.69,0)"/></marker></defs><metadata id="metadata5"/><g id="layer1" transform="translate(-2.739922,-21.557636)"><flowRoot transform="matrix(0.26458333,0,0,0.26458333,-11.604491,77.287997)" style="font-style:normal;font-weight:400;font-size:16px;line-height:1.25;font-family:sans-serif;letter-spacing:0;word-spacing:0;fill:#000;fill-opacity:1;stroke:none" id="flowRoot3421" xml:space="preserve"><flowRegion id="flowRegion3423" style="font-size:16px"><rect id="rect3425" width="191.929" height="89.146" x="250.897" y="235.858" style="font-size:16px"/></flowRegion><flowPara id="flowPara3427"/></flowRoot><flowRoot transform="matrix(0.26458333,0,0,0.26458333,38.821914,124.48811)" style="font-style:normal;font-weight:400;font-size:16px;line-height:1.25;font-family:sans-serif;letter-spacing:0;word-spacing:0;fill:#000;fill-opacity:1;stroke:none" id="flowRoot10659" xml:space="preserve"><flowRegion style="font-size:16px" id="flowRegion10661"><rect style="font-size:16px" id="rect10663" width="802.143" height="277.143" x="-105.357" y="-45.121"/></flowRegion><flowPara id="flowPara10665"/></flowRoot><g id="g4479" transform="translate(-6.3500003)"><text id="text1378-4" x="93.03" y="67.27" style="font-style:normal;font-weight:400;font-size:4.23333311px;line-height:1.25;font-family:sans-serif;letter-spacing:0;word-spacing:0;fill:#000;fill-opacity:1;stroke:none;stroke-width:.26458332" xml:space="preserve"><tspan style="font-weight:700;font-size:4.23333311px;stroke-width:.26458332" id="tspan1376-8" x="93.03" y="67.27">rounds</tspan></text><rect id="rect1322" width="27.449" height="17.904" x="90.549" y="53.133" style="opacity:.32300002;fill:#000;fill-opacity:1;fill-rule:nonzero;stroke:none;stroke-width:11.3381691;stroke-miterlimit:4;stroke-dasharray:0,11.33816922,22.67633839,34.0145076,45.35267682,56.69084603,68.02901523,79.36718443,90.70535366,102.04352286,113.38169206,124.71986127,136.05803047,147.39619968,158.73436888;stroke-dashoffset:0;stroke-opacity:1"/></g><g id="g4192" transform="translate(-6.3500003)"><text id="text1378" x="47.429" y="66.756" style="font-style:normal;font-weight:400;font-size:4.23333311px;line-height:1.25;font-family:sans-serif;letter-spacing:0;word-spacing:0;fill:#000;fill-opacity:1;stroke:none;stroke-width:.26458332" xml:space="preserve"><tspan style="font-weight:700;font-size:4.23333311px;stroke-width:.26458332" id="tspan1376" x="47.429" y="66.756">initialization</tspan></text><path id="rect1322-9" d="M 43.137774,64.037173 77.319442,52.603393 V 70.60451 H 43.206001 c 0,-6.000372 -0.06823,-1.599308 -0.06823,-6.567337 z" style="opacity:.147;fill:#000;fill-opacity:1;fill-rule:nonzero;stroke:none;stroke-width:0;stroke-miterlimit:4;stroke-dasharray:none;stroke-dashoffset:0;stroke-opacity:1"/></g><g id="g4474" transform="translate(-3.1750001)"><text id="text1378-4-6" x="130.042" y="67.444" style="font-style:normal;font-weight:400;font-size:4.23333311px;line-height:1.25;font-family:sans-serif;letter-spacing:0;word-spacing:0;fill:#000;fill-opacity:1;stroke:none;stroke-width:.26458332" xml:space="preserve"><tspan style="font-weight:700;font-size:4.23333311px;stroke-width:.26458332" id="tspan1376-8-3" x="130.042" y="67.444">finalization</tspan></text><path id="rect1322-9-1" d="m 162.76292,64.566341 -34.18167,-11.43378 v 18.001117 h 34.11344 c 0,-6.000372 0.0683,-1.599308 0.0683,-6.567337 z" style="opacity:.147;fill:#000;fill-opacity:1;fill-rule:nonzero;stroke:none;stroke-width:0;stroke-miterlimit:4;stroke-dasharray:none;stroke-dashoffset:0;stroke-opacity:1"/></g><text id="text10323-9-5-01" x="49.817" y="84.396" style="font-style:normal;font-weight:400;font-size:4.23333311px;line-height:1.25;font-family:sans-serif;letter-spacing:0;word-spacing:0;fill:#000;fill-opacity:1;stroke:none;stroke-width:.26458332" xml:space="preserve"><tspan style="font-style:italic;font-size:4.23333311px;line-height:2.25;stroke-width:.26458332" id="tspan10321-9-0-6" x="49.817" y="84.396">counter</tspan></text><text id="text10323-4-6" x="33.885" y="84.15" style="font-style:normal;font-weight:400;font-size:4.23333311px;line-height:1.25;font-family:sans-serif;letter-spacing:0;word-spacing:0;fill:#000;fill-opacity:1;stroke:none;stroke-width:.26458332" xml:space="preserve"><tspan style="font-style:italic;font-size:4.23333311px;line-height:2.25;stroke-width:.26458332" id="tspan10321-5-5" x="33.885" y="84.15">salt</tspan></text><path id="path2507-1-1-6-4-2" d="m 57.334687,80.410454 0.019,-8.520299" style="fill:none;stroke:#000;stroke-width:.50599998;stroke-linecap:butt;stroke-linejoin:miter;stroke-miterlimit:4;stroke-dasharray:none;stroke-dashoffset:0;stroke-opacity:1;marker-end:url(#Arrow2Send-4-9-9-5-1)"/><path id="path2507-1-1-6-4-2-0" d="m 39.697448,80.054793 0.019,-8.520299" style="fill:none;stroke:#000;stroke-width:.50599998;stroke-linecap:butt;stroke-linejoin:miter;stroke-miterlimit:4;stroke-dasharray:none;stroke-dashoffset:0;stroke-opacity:1;marker-end:url(#Arrow2Send-4-9-9-5-1-7)"/><path id="path2507-1-1-6-4-2-02" d="m 156.00327,80.279871 0.019,-8.520299" style="fill:none;stroke:#000;stroke-width:.50599998;stroke-linecap:butt;stroke-linejoin:miter;stroke-miterlimit:4;stroke-dasharray:none;stroke-dashoffset:0;stroke-opacity:1;marker-end:url(#Arrow2Send-4-9-9-5-1-4)"/><path id="path2507-1-1-6-4-2-0-3" d="m 136.79737,80.585668 0.019,-8.520299" style="fill:none;stroke:#000;stroke-width:.50599998;stroke-linecap:butt;stroke-linejoin:miter;stroke-miterlimit:4;stroke-dasharray:none;stroke-dashoffset:0;stroke-opacity:1;marker-end:url(#Arrow2Send-4-9-9-5-1-7-1)"/><path id="path2507-1-1-6-4-2-5" d="m 97.811303,80.621757 0.019,-8.520299" style="fill:none;stroke:#000;stroke-width:.50599998;stroke-linecap:butt;stroke-linejoin:miter;stroke-miterlimit:4;stroke-dasharray:none;stroke-dashoffset:0;stroke-opacity:1;marker-end:url(#Arrow2Send-4-9-9-5-1-5)"/><text id="text10323-9-5-01-7" x="89.467" y="84.279" style="font-style:normal;font-weight:400;font-size:4.23333311px;line-height:1.25;font-family:sans-serif;letter-spacing:0;word-spacing:0;fill:#000;fill-opacity:1;stroke:none;stroke-width:.26458332" xml:space="preserve"><tspan style="font-style:italic;font-size:4.23333311px;line-height:2.25;stroke-width:.26458332" id="tspan10321-9-0-6-1" x="89.467" y="84.279">message</tspan></text><text xml:space="preserve" style="font-style:normal;font-weight:400;font-size:4.23333311px;line-height:1.25;font-family:sans-serif;letter-spacing:0;word-spacing:0;fill:#000;fill-opacity:1;stroke:none;stroke-width:.26458332" id="text2817" x="130.799" y="84.162"><tspan id="tspan2815" x="130.799" y="84.162" style="font-size:4.23333311px;stroke-width:.26458332">chaining </tspan><tspan x="130.799" y="89.453" style="font-size:4.23333311px;stroke-width:.26458332" id="tspan2819">value</tspan></text><text id="text10323-4-6-6" x="152.277" y="84.415" style="font-style:normal;font-weight:400;font-size:4.23333311px;line-height:1.25;font-family:sans-serif;letter-spacing:0;word-spacing:0;fill:#000;fill-opacity:1;stroke:none;stroke-width:.26458332" xml:space="preserve"><tspan style="font-style:italic;font-size:4.23333311px;line-height:2.25;stroke-width:.26458332" id="tspan10321-5-5-6" x="152.277" y="84.415">salt</tspan></text><path id="path2507-1-1-6-4-2-0-5" d="m 20.026629,66.423278 13.791987,0.014" style="fill:none;stroke:#000;stroke-width:.55258507;stroke-linecap:butt;stroke-linejoin:miter;stroke-miterlimit:4;stroke-dasharray:none;stroke-dashoffset:0;stroke-opacity:1;marker-end:url(#Arrow2Send-4-9-9-5-1-7-3)"/><text xml:space="preserve" style="font-style:normal;font-weight:400;font-size:4.23333311px;line-height:1.25;font-family:sans-serif;letter-spacing:0;word-spacing:0;fill:#000;fill-opacity:1;stroke:none;stroke-width:.26458332" id="text2817-9" x="2.614" y="64.324"><tspan id="tspan2815-7" x="2.614" y="64.324" style="font-size:4.23333311px;stroke-width:.26458332">chaining </tspan><tspan x="2.614" y="69.616" style="font-size:4.23333311px;stroke-width:.26458332" id="tspan2819-6">value</tspan></text><text xml:space="preserve" style="font-style:normal;font-weight:400;font-size:4.23333311px;line-height:1.25;font-family:sans-serif;letter-spacing:0;word-spacing:0;fill:#000;fill-opacity:1;stroke:none;stroke-width:.26458332" id="text2817-7" x="176.477" y="65.073"><tspan id="tspan2815-0" x="176.477" y="65.073" style="font-size:4.23333311px;stroke-width:.26458332">next chaining </tspan><tspan x="176.477" y="70.365" style="font-size:4.23333311px;stroke-width:.26458332" id="tspan2819-9">value</tspan></text><path id="path2507-1-1-6-4-2-0-5-0" d="m 72.998049,66.073895 8.520299,0.019" style="fill:none;stroke:#000;stroke-width:.50599998;stroke-linecap:butt;stroke-linejoin:miter;stroke-miterlimit:4;stroke-dasharray:none;stroke-dashoffset:0;stroke-opacity:1;marker-end:url(#Arrow2Send-4-9-9-5-1-7-3-6)"/><path id="path2507-1-1-6-4-2-0-5-0-4" d="m 113.49476,65.945633 8.52029,0.019" style="fill:none;stroke:#000;stroke-width:.50599998;stroke-linecap:butt;stroke-linejoin:miter;stroke-miterlimit:4;stroke-dasharray:none;stroke-dashoffset:0;stroke-opacity:1;marker-end:url(#Arrow2Send-4-9-9-5-1-7-3-6-3)"/><path style="opacity:1;fill:none;fill-opacity:1;fill-rule:nonzero;stroke:#000;stroke-width:.83688408;stroke-linejoin:round;stroke-miterlimit:4;stroke-dasharray:.83688413,.83688413;stroke-dashoffset:1.03740764;stroke-opacity:1;paint-order:normal" id="rect2466-38-0" d="M 23.39713,21.976069 162.80081,48.201931 163.41466,93.17551 23.396731,118.12213 Z"/><text xml:space="preserve" style="font-style:normal;font-weight:400;font-size:13.01320457px;line-height:1.25;font-family:sans-serif;letter-spacing:0;word-spacing:0;fill:#000;fill-opacity:1;stroke:none;stroke-width:1.6251862" id="text2487-65-7-9-9-3-8" x="29.454" y="31.329" transform="scale(0.83860073,1.1924626)"><tspan id="tspan2485-6-9-1-8-7-3" x="29.454" y="31.329" style="font-style:italic;font-size:13.01320457px;line-height:3.25;stroke-width:1.6251862">f</tspan></text><path id="path2507-1-1-6-4-2-0-5-8" d="m 161.31943,66.058723 13.79198,0.014" style="fill:none;stroke:#000;stroke-width:.55258507;stroke-linecap:butt;stroke-linejoin:miter;stroke-miterlimit:4;stroke-dasharray:none;stroke-dashoffset:0;stroke-opacity:1;marker-end:url(#Arrow2Send-4-9-9-5-1-7-3-7)"/></g></svg>